<svg width="50" height="50" viewBox="0 0 50 50" fill="none" xmlns="http://www.w3.org/2000/svg">
<path fill-rule="evenodd" clip-rule="evenodd" d="M28.0303 15.5311C28.4677 15.0976 29.0581 14.8536 29.6739 14.8519C30.2897 14.8502 30.8814 15.091 31.3211 15.5221C31.7609 15.9532 32.0133 16.54 32.0237 17.1557C32.0342 17.7714 31.802 18.3665 31.3772 18.8124L18.9022 34.4061C18.6878 34.6371 18.429 34.8224 18.1414 34.951C17.8537 35.0797 17.5431 35.149 17.228 35.1548C16.9129 35.1606 16.5999 35.1029 16.3077 34.985C16.0155 34.8671 15.75 34.6915 15.5272 34.4686L7.26159 26.1999C7.03132 25.9853 6.84662 25.7266 6.71852 25.4391C6.59042 25.1516 6.52154 24.8412 6.51599 24.5265C6.51044 24.2118 6.56833 23.8992 6.6862 23.6074C6.80408 23.3156 6.97953 23.0505 7.20209 22.8279C7.42465 22.6053 7.68976 22.4299 7.9816 22.312C8.27343 22.1941 8.58602 22.1362 8.90072 22.1418C9.21542 22.1473 9.52577 22.2162 9.81327 22.3443C10.1008 22.4724 10.3595 22.6571 10.5741 22.8874L17.1178 29.428L27.9678 15.5999C27.9873 15.5758 28.0082 15.5528 28.0303 15.5311ZM25.1553 31.5936L28.0303 34.4686C28.2531 34.691 28.5184 34.8662 28.8103 34.9838C29.1022 35.1014 29.4149 35.159 29.7295 35.1532C30.0442 35.1474 30.3545 35.0782 30.6419 34.9499C30.9293 34.8215 31.1878 34.6366 31.4022 34.4061L43.8772 18.8124C44.1013 18.5911 44.2785 18.327 44.3983 18.0358C44.518 17.7445 44.5778 17.4321 44.5742 17.1172C44.5705 16.8023 44.5034 16.4914 44.3769 16.203C44.2504 15.9146 44.0671 15.6547 43.8379 15.4387C43.6087 15.2228 43.3383 15.0552 43.0429 14.9461C42.7475 14.8369 42.4332 14.7884 42.1186 14.8035C41.8041 14.8185 41.4958 14.8968 41.2122 15.0336C40.9285 15.1705 40.6754 15.363 40.4678 15.5999L29.6147 29.428L28.0991 27.9093L25.1522 31.5936H25.1553Z" fill="#98D8DA"/>
</svg>
