<svg width="397" height="439" viewBox="0 0 397 439" fill="none" xmlns="http://www.w3.org/2000/svg">
<path d="M235.365 163.183C235.365 156.057 219.804 150.281 200.608 150.281C181.412 150.281 165.851 156.057 165.851 163.183C173.399 170.349 181.412 176.086 200.608 176.086C219.804 176.086 231.441 168.221 235.365 163.183Z" fill="#FEF0D0"/>
<path d="M171.332 101.027C172.036 113.196 166.316 123.422 158.561 123.87C150.805 124.316 143.949 114.816 143.245 102.648C142.542 90.4803 148.261 80.255 156.016 79.807C163.773 79.359 170.629 88.859 171.332 101.027" fill="#183855"/>
<path d="M229.886 101.027C229.18 113.196 234.9 123.422 242.654 123.87C250.412 124.316 257.269 114.816 257.97 102.648C258.673 90.4803 252.954 80.2536 245.2 79.807C237.444 79.359 230.586 88.859 229.886 101.027" fill="#183855"/>
<path d="M252.919 100.273C252.042 100.273 251.183 99.8254 250.702 99.0147C249.971 97.7921 250.369 96.2107 251.59 95.4787C252.402 94.9867 270.922 83.4641 269.642 56.5201C269.574 55.0961 270.673 53.8867 272.099 53.8187C273.502 53.7427 274.73 54.8508 274.798 56.2748C276.23 86.4241 255.138 99.3721 254.239 99.9081C253.826 100.156 253.37 100.273 252.919 100.273" fill="#183855"/>
<path d="M270.225 58.3496C264.932 58.3496 260.107 54.7563 258.776 49.3936C258.432 48.011 259.276 46.611 260.659 46.267C262.043 45.9203 263.441 46.7669 263.785 48.1509C264.667 51.7003 268.273 53.871 271.821 52.991C273.541 52.5643 274.991 51.495 275.905 49.9763C276.82 48.459 277.089 46.6763 276.663 44.9563C276.319 43.5736 277.163 42.1736 278.545 41.831C279.927 41.483 281.328 42.3296 281.672 43.7136C282.432 46.7709 281.955 49.943 280.327 52.6416C278.7 55.3403 276.12 57.2443 273.063 58.0016C272.115 58.2376 271.163 58.3496 270.225 58.3496" fill="#183855"/>
<path d="M260.876 79.2205L271.021 88.3672C271.021 88.3672 276.696 78.5112 276.437 68.7979L267.425 65.2339C267.425 65.2339 264.277 74.7525 260.876 79.2205Z" fill="white"/>
<path d="M200.608 199.473C189.598 199.473 177.497 185.657 167.408 161.567C158.941 141.351 153.026 116.371 153.026 100.821C153.026 87.67 157.456 78.6113 166.568 73.122C174.162 68.5486 185.297 66.3246 200.608 66.3246C215.918 66.3246 227.054 68.5486 234.648 73.122C243.761 78.6113 248.189 87.67 248.189 100.821C248.189 116.371 242.276 141.351 233.809 161.567C223.72 185.657 211.617 199.473 200.608 199.473" fill="#183855"/>
<path d="M250.254 100.821C250.254 70.9908 228.028 64.2601 200.608 64.2601C173.189 64.2601 150.961 70.9908 150.961 100.821C150.961 112.556 154.402 130.643 160.245 148.269C169.109 151.925 179.196 154.407 190.02 155.357C190.257 150.033 194.636 145.787 200.017 145.787C205.401 145.787 209.781 150.033 210.016 155.357C221.4 154.357 231.973 151.672 241.16 147.699C246.888 130.253 250.254 112.429 250.254 100.821Z" fill="white"/>
<path d="M209.217 91.3691C207.048 89.1038 203.992 87.6918 200.608 87.6918C198.164 87.6918 195.891 88.4278 194 89.6905C181.739 86.7531 171.476 80.1745 165.208 71.5438C166.195 70.9345 167.223 70.3718 168.291 69.8531C176.911 75.9491 188.197 79.7411 200.608 79.9611C200.987 79.9678 201.364 79.9705 201.743 79.9705C214.104 79.9705 225.42 76.3878 234.095 70.4425C238.211 72.6291 241.691 75.5118 244.355 79.2611C235.452 86.5865 223.019 91.2025 209.217 91.3691" fill="#FFF9EA"/>
<path d="M159.29 39.7431C159.152 47.6191 156.854 53.9657 154.157 53.9177C151.46 53.871 149.39 47.4471 149.529 39.5711C149.669 31.6924 151.966 25.347 154.662 25.395C157.357 25.443 159.43 31.8671 159.29 39.7431Z" fill="#183855"/>
<path d="M243.32 41.2273C243.181 49.1033 245.252 55.5273 247.949 55.5739C250.644 55.6219 252.943 49.2766 253.081 41.3993C253.223 33.5233 251.149 27.098 248.453 27.0513C245.757 27.0033 243.457 33.3499 243.32 41.2273" fill="#183855"/>
<path d="M251.15 41.366C250.765 63.166 228.137 80.4473 200.608 79.9607C173.078 79.474 151.073 61.4047 151.457 39.6034C151.844 17.8007 174.472 0.521989 202.002 1.00866C229.532 1.49532 251.537 19.5633 251.15 41.366" fill="white"/>
<path d="M175.939 60.7233C168.79 60.5967 163.078 54.6793 163.203 47.5313L163.477 32.0993C163.605 24.95 169.521 19.238 176.669 19.3647L226.669 20.2474C233.819 20.374 239.53 26.2926 239.403 33.4406L239.131 48.8727C239.005 56.022 233.087 61.7327 225.941 61.6074L175.939 60.7233" fill="#6FC7CC"/>
<path d="M237.552 33.4061C237.66 27.2701 232.776 22.2074 226.636 22.0981L176.636 21.2155C170.502 21.1075 165.438 25.9941 165.33 32.1301L165.056 47.5621C164.948 53.6994 169.835 58.7621 175.971 58.8701L225.971 59.7541C232.11 59.8621 237.171 54.9755 237.278 48.8381L237.552 33.4061" fill="#183855"/>
<path d="M186.953 39.6564C186.953 37.1884 184.953 35.1897 182.487 35.1897C180.019 35.1897 178.019 37.1884 178.019 39.6564C178.019 42.1244 180.019 44.123 182.487 44.123C184.953 44.123 186.953 42.1244 186.953 39.6564Z" fill="white"/>
<path d="M224.555 39.6564C224.555 37.1884 222.555 35.1897 220.087 35.1897C217.619 35.1897 215.619 37.1884 215.619 39.6564C215.619 42.1244 217.619 44.123 220.087 44.123C222.555 44.123 224.555 42.1244 224.555 39.6564Z" fill="white"/>
<path d="M219.502 59.6406L216.616 59.5899L219.502 59.6406ZM214.424 59.5513L204.101 59.3686L214.424 59.5513ZM237.465 38.3553L237.553 33.4073C237.554 33.2806 237.554 33.1526 237.553 33.0273C237.554 33.154 237.554 33.2793 237.553 33.4073L237.465 38.3553ZM175.913 21.2259C175.92 21.2259 175.926 21.2259 175.934 21.2259C175.926 21.2259 175.92 21.2259 175.913 21.2259ZM175.945 21.2259C176.108 21.2179 176.272 21.214 176.436 21.214C176.502 21.214 176.57 21.2153 176.637 21.2166C176.57 21.2153 176.504 21.214 176.437 21.214C176.272 21.214 176.108 21.2179 175.945 21.2259Z" fill="#8AD6D7"/>
<path d="M222.987 59.7012L219.502 59.6398L216.617 59.5892L236.946 29.6159C237.314 30.6905 237.533 31.8359 237.553 33.0265C237.554 33.1519 237.554 33.2798 237.553 33.4065L237.465 38.3545L222.987 59.7012V59.7012ZM214.423 59.5505L204.101 59.3678L216.102 41.6758C216.839 43.1278 218.347 44.1225 220.087 44.1225C222.555 44.1225 224.555 42.1238 224.555 39.6558C224.555 37.3238 222.769 35.4091 220.489 35.2065L229.149 22.4412C232.101 23.1798 234.573 25.0958 236.054 27.6585L214.423 59.5505V59.5505ZM168.469 55.7558C167.049 54.3865 165.99 52.6505 165.453 50.6945L185.346 21.3692L191.715 21.4825L182.418 35.1892C179.982 35.2252 178.018 37.2105 178.018 39.6558C178.018 40.2158 178.122 40.7518 178.31 41.2465L168.469 55.7558V55.7558ZM165.07 47.9892C165.067 47.8478 165.055 47.7065 165.057 47.5625L165.329 32.2091L172.221 22.0492C173.369 21.5745 174.611 21.2878 175.913 21.2252C175.919 21.2252 175.926 21.2252 175.934 21.2252C175.937 21.2252 175.941 21.2252 175.945 21.2252C176.107 21.2172 176.271 21.2132 176.437 21.2132C176.503 21.2132 176.57 21.2145 176.637 21.2159L183.153 21.3305L165.07 47.9892" fill="#235777"/>
<path d="M178.311 41.2461C178.123 40.7514 178.019 40.2154 178.019 39.6554C178.019 37.2101 179.983 35.2248 182.419 35.1888L178.311 41.2461Z" fill="white"/>
<path d="M220.088 44.123C218.348 44.123 216.84 43.1284 216.103 41.6764L220.489 35.207C222.769 35.4097 224.556 37.3244 224.556 39.6564C224.556 42.1244 222.556 44.123 220.088 44.123Z" fill="white"/>
<path d="M195.561 51.1741L192.246 51.1914L192.231 47.8754L195.546 47.8581L195.561 51.1741Z" fill="white"/>
<path d="M208.827 51.109L205.511 51.125L205.494 47.809L208.81 47.7917L208.827 51.109Z" fill="white"/>
<path d="M198.894 54.4743L195.579 54.4902L195.561 51.1743L198.879 51.1582L198.894 54.4743Z" fill="white"/>
<path d="M205.528 54.441L202.212 54.457L202.194 51.1424L205.512 51.125L205.528 54.441" fill="white"/>
<path d="M202.212 54.4573L198.895 54.4746L198.88 51.1586L202.195 51.1426L202.212 54.4573" fill="white"/>
<path d="M160.644 23.9609C160.644 23.9609 169.377 9.70491 188.132 4.52891C192.282 3.38357 194.674 2.92227 195.817 2.92227C199.844 2.92227 188.41 8.64363 183.786 10.4516C177.85 12.7756 170.408 14.4969 160.644 23.9609" fill="white"/>
<path d="M148.295 100.271C147.849 100.271 147.395 100.155 146.983 99.9115C146.083 99.3781 124.945 86.5101 126.263 56.3555C126.326 54.9301 127.541 53.8368 128.954 53.8901C130.378 53.9501 131.483 55.1568 131.421 56.5808C130.235 83.6781 149.419 95.3541 149.614 95.4688C150.839 96.1955 151.246 97.7782 150.519 99.0048C150.038 99.8195 149.178 100.271 148.295 100.271" fill="#183855"/>
<path d="M130.823 58.418C129.886 58.418 128.942 58.306 128.006 58.0767C124.945 57.33 122.356 55.4353 120.72 52.7433C119.084 50.0513 118.594 46.882 119.341 43.8206C119.678 42.4366 121.075 41.586 122.46 41.926C123.846 42.2646 124.694 43.6607 124.356 45.0447C123.935 46.766 124.211 48.5486 125.131 50.062C126.052 51.5766 127.507 52.642 129.228 53.062C130.95 53.482 132.733 53.2073 134.246 52.286C135.761 51.3673 136.825 49.9113 137.245 48.1926C137.582 46.8073 138.986 45.9553 140.363 46.2966C141.747 46.634 142.598 48.03 142.259 49.4153C141.512 52.4753 139.619 55.062 136.927 56.6993C135.056 57.8353 132.956 58.418 130.823 58.418" fill="#183855"/>
<path d="M139.92 78.4886L129.375 87.1699C129.375 87.1699 124.149 77.0673 124.843 67.3766L134.005 64.2192C134.005 64.2192 136.725 73.8699 139.92 78.4886" fill="white"/>
<path d="M200.501 174.756C188.102 174.756 176.393 170.51 166 162.999C174.89 191.03 173 204.6 200.501 203.499C232 202.237 226.111 191.03 235 162.999C224.607 170.51 212.899 174.756 200.501 174.756Z" fill="white"/>
<path d="M207.836 166.206C207.836 160.464 204.134 155.809 199.57 155.809C195.008 155.809 191.308 160.464 191.308 166.206C191.308 171.949 195.008 176.604 199.57 176.604C204.134 176.604 207.836 171.949 207.836 166.206Z" fill="#183855"/>
<path d="M204.437 161.764C204.437 156.599 202.258 152.411 199.57 152.411C196.885 152.411 194.706 156.599 194.706 161.764C194.706 166.929 196.885 171.117 199.57 171.117C202.258 171.117 204.437 166.929 204.437 161.764Z" fill="white"/>
<path opacity="0.6" d="M178.65 196H223.764L397 399C397 399 332.048 438.5 206 438.5C79.9524 438.5 0 399 0 399L178.65 196Z" fill="url(#paint0_linear)" fill-opacity="0.7"/>
<g filter="url(#filter0_d)">
<path d="M188.202 134.998H189.407V130.543H190.712V129.598H189.407V129.253C189.407 129.067 189.462 128.917 189.572 128.803C189.685 128.687 189.857 128.628 190.087 128.628H190.712V127.648H190.037C189.907 127.648 189.755 127.653 189.582 127.663C189.409 127.67 189.232 127.707 189.052 127.773C188.875 127.837 188.71 127.953 188.557 128.123C188.374 128.323 188.269 128.553 188.242 128.813C188.215 129.073 188.202 129.307 188.202 129.513V129.598H187.332V130.543H188.202V134.998Z" fill="#142249"/>
<path d="M191.758 128.778H192.963V127.673H191.758V128.778ZM191.758 134.998H192.963V129.598H191.758V134.998Z" fill="#142249"/>
<path d="M193.861 134.998H195.281L196.536 133.213L197.781 134.998H199.201L197.216 132.268L199.151 129.598H197.731L196.536 131.323L195.321 129.598H193.901L195.836 132.268L193.861 134.998Z" fill="#142249"/>
<path d="M199.988 134.998H201.053V134.598C201.246 134.772 201.471 134.907 201.728 135.003C201.984 135.1 202.273 135.148 202.593 135.148C203.093 135.148 203.526 135.023 203.893 134.773C204.263 134.523 204.549 134.183 204.753 133.753C204.956 133.323 205.058 132.838 205.058 132.298C205.058 131.752 204.954 131.263 204.748 130.833C204.544 130.403 204.254 130.065 203.878 129.818C203.501 129.572 203.058 129.448 202.548 129.448C202.278 129.448 202.031 129.485 201.808 129.558C201.584 129.628 201.383 129.73 201.203 129.863V127.798H199.988V134.998ZM202.408 134.068C201.924 134.068 201.578 133.905 201.368 133.578C201.158 133.248 201.053 132.822 201.053 132.298C201.053 131.772 201.156 131.345 201.363 131.018C201.573 130.692 201.908 130.528 202.368 130.528C202.691 130.528 202.956 130.608 203.163 130.768C203.373 130.925 203.528 131.138 203.628 131.408C203.731 131.675 203.783 131.972 203.783 132.298C203.783 132.628 203.733 132.927 203.633 133.193C203.536 133.46 203.386 133.673 203.183 133.833C202.979 133.99 202.721 134.068 202.408 134.068Z" fill="#142249"/>
<path d="M208.545 135.148C209.085 135.148 209.556 135.028 209.96 134.788C210.363 134.545 210.676 134.21 210.9 133.783C211.126 133.353 211.24 132.858 211.24 132.298C211.24 131.742 211.128 131.25 210.905 130.823C210.681 130.393 210.368 130.057 209.965 129.813C209.561 129.57 209.088 129.448 208.545 129.448C208.015 129.448 207.548 129.568 207.145 129.808C206.741 130.048 206.426 130.382 206.2 130.808C205.973 131.235 205.86 131.732 205.86 132.298C205.86 132.855 205.97 133.348 206.19 133.778C206.413 134.205 206.726 134.54 207.13 134.783C207.533 135.027 208.005 135.148 208.545 135.148ZM208.545 134.018C208.081 134.018 207.73 133.863 207.49 133.553C207.253 133.24 207.135 132.822 207.135 132.298C207.135 131.788 207.248 131.375 207.475 131.058C207.705 130.738 208.061 130.578 208.545 130.578C209.018 130.578 209.373 130.735 209.61 131.048C209.846 131.358 209.965 131.775 209.965 132.298C209.965 132.805 209.846 133.218 209.61 133.538C209.376 133.858 209.021 134.018 208.545 134.018Z" fill="#142249"/>
<path d="M215.506 134.998V133.988C215.17 134.038 214.87 134.052 214.606 134.028C214.343 134.005 214.151 133.893 214.031 133.693C213.968 133.59 213.933 133.457 213.926 133.293C213.923 133.127 213.921 132.937 213.921 132.723V130.543H215.506V129.598H213.921V128.098H212.721V129.598H211.741V130.543H212.721V132.793C212.721 133.103 212.725 133.38 212.731 133.623C212.738 133.863 212.803 134.1 212.926 134.333C213.066 134.59 213.271 134.778 213.541 134.898C213.811 135.015 214.116 135.077 214.456 135.083C214.8 135.093 215.15 135.065 215.506 134.998Z" fill="#142249"/>
</g>
<g clip-path="url(#clip0)">
<path d="M188.044 119.453L188.021 116.848C188.017 116.369 188.107 115.894 188.286 115.451C188.466 115.007 188.73 114.603 189.066 114.262C189.401 113.92 189.801 113.648 190.241 113.461C190.682 113.274 191.155 113.176 191.633 113.172L204.037 113.064L203.929 100.66C203.925 100.181 204.015 99.7066 204.194 99.2629C204.373 98.8192 204.638 98.4151 204.974 98.0738C205.309 97.7324 205.708 97.4605 206.149 97.2736C206.589 97.0867 207.062 96.9884 207.541 96.9844L210.146 96.9617C210.625 96.9573 211.1 97.0474 211.543 97.2266C211.987 97.4058 212.391 97.6706 212.732 98.0061C213.074 98.3415 213.346 98.7409 213.533 99.1814C213.719 99.6219 213.818 100.095 213.822 100.574L213.985 119.227C213.989 119.706 213.899 120.181 213.72 120.624C213.54 121.068 213.276 121.472 212.94 121.814C212.605 122.155 212.205 122.427 211.765 122.614C211.324 122.801 210.851 122.899 210.373 122.903L191.719 123.066C191.24 123.07 190.766 122.98 190.322 122.8C189.878 122.621 189.474 122.356 189.133 122.021C188.792 121.685 188.52 121.286 188.333 120.845C188.146 120.405 188.048 119.931 188.044 119.453V119.453Z" fill="#223256"/>
<path opacity="0.8" d="M213.822 100.574L213.844 103.179C213.849 103.657 213.759 104.132 213.58 104.576C213.4 105.02 213.136 105.424 212.8 105.765C212.465 106.106 212.065 106.378 211.625 106.565C211.184 106.752 210.711 106.85 210.233 106.854L197.829 106.963L197.937 119.367C197.941 119.845 197.851 120.32 197.672 120.764C197.493 121.207 197.228 121.611 196.892 121.953C196.557 122.294 196.158 122.566 195.717 122.753C195.277 122.94 194.803 123.038 194.325 123.042L191.72 123.065C191.241 123.069 190.766 122.979 190.323 122.8C189.879 122.621 189.475 122.356 189.134 122.02C188.792 121.685 188.52 121.286 188.333 120.845C188.147 120.405 188.048 119.931 188.044 119.453L187.881 100.799C187.877 100.321 187.967 99.8459 188.147 99.4023C188.326 98.9587 188.591 98.5547 188.926 98.2135C189.262 97.8723 189.661 97.6005 190.101 97.4136C190.542 97.2267 191.015 97.1285 191.493 97.1245L210.147 96.9617C210.626 96.9575 211.1 97.0476 211.544 97.2268C211.988 97.4061 212.391 97.671 212.733 98.0064C213.074 98.3418 213.346 98.7411 213.533 99.1816C213.719 99.6221 213.818 100.095 213.822 100.574Z" fill="#97D8EA"/>
</g>
<ellipse cx="200.5" cy="196.5" rx="23.5" ry="4.5" fill="#A5E4E6"/>
<defs>
<filter id="filter0_d" x="183.332" y="127.648" width="36.1744" height="15.5" filterUnits="userSpaceOnUse" color-interpolation-filters="sRGB">
<feFlood flood-opacity="0" result="BackgroundImageFix"/>
<feColorMatrix in="SourceAlpha" type="matrix" values="0 0 0 0 0 0 0 0 0 0 0 0 0 0 0 0 0 0 127 0"/>
<feOffset dy="4"/>
<feGaussianBlur stdDeviation="2"/>
<feColorMatrix type="matrix" values="0 0 0 0 0 0 0 0 0 0 0 0 0 0 0 0 0 0 0.25 0"/>
<feBlend mode="normal" in2="BackgroundImageFix" result="effect1_dropShadow"/>
<feBlend mode="normal" in="SourceGraphic" in2="effect1_dropShadow" result="shape"/>
</filter>
<linearGradient id="paint0_linear" x1="272.486" y1="263.019" x2="197.829" y2="366.696" gradientUnits="userSpaceOnUse">
<stop stop-color="#98D8DA"/>
<stop offset="0.128377" stop-color="#A0DBDD" stop-opacity="0.92125"/>
<stop offset="0.652703" stop-color="#C8EAEB" stop-opacity="0.533417"/>
<stop offset="0.8125" stop-color="#CFEDEE" stop-opacity="0.46"/>
<stop offset="0.963158" stop-color="#CFEDEE" stop-opacity="0.46"/>
</linearGradient>
<clipPath id="clip0">
<rect x="187.85" y="97.1562" width="25.9413" height="25.9413" rx="2" transform="rotate(-0.5 187.85 97.1562)" fill="white"/>
</clipPath>
</defs>
</svg>
