<svg width="927" height="381" viewBox="0 0 927 381" fill="none" xmlns="http://www.w3.org/2000/svg">
<g opacity="0.8">
<path d="M855.756 350.782C852.37 356.391 848.766 361.425 844.817 365.739C843.907 366.746 842.995 367.656 842.083 368.569C836.918 373.554 831.276 377.291 825.156 379.353L791.086 379.545L744.601 379.785L713.523 379.93L691.432 380.025H690.435L675.85 380.121H668.037L485.401 379.593H483.926L436.961 379.449L311.398 379.112L260.183 378.969H258.968L59.6183 378.443C59.6183 378.443 -1.44929 341.531 0.0263173 277.196C0.981333 236.062 13.6113 149.295 145.903 128.969C192.952 121.777 217.431 99.8682 239.61 76.1421C244.298 71.1562 248.855 66.1233 253.499 61.0891C285.139 26.9086 320.904 -5.64352 419.949 0.827488C425.895 1.21216 431.537 1.88365 436.961 2.79372C454.715 5.72095 469.949 11.0902 483.926 16.8884C517.56 30.9362 543.733 47.7142 579.93 39.6589C649.591 24.177 703.193 22.7831 744.601 31.2243C762.225 34.8164 777.586 40.187 791.086 47.0427C853.283 78.489 874.939 140.858 885.224 202.126C890.173 231.558 881.319 307.829 855.756 350.782Z" fill="#EBF3FA"/>
<path d="M479.126 380.998H432.658V379.438L436.961 379.447L479.126 379.578V380.998Z" fill="#D7E6FD"/>
<path d="M479.126 379.582L436.961 379.45L432.658 379.441V2.77148C450.236 5.7081 465.314 11.068 479.126 16.8943V35.0139L432.658 16.3006V38.685L479.126 57.3998V81.8403L432.658 63.1256V85.5114L479.126 104.225V129.798L432.658 111.083V133.469L479.126 152.182V177.758L432.658 159.045V181.427L479.126 200.14V225.717L432.658 207.002V229.388L479.126 248.102V379.582Z" fill="#CDE0FB"/>
<path d="M479.126 57.3961L432.658 38.6814V16.2969L479.126 35.0103V57.3961Z" fill="#F2C5A0"/>
<path d="M479.126 104.222L432.658 85.5089V63.123L479.126 81.8378V104.222Z" fill="#F2C5A0"/>
<path d="M479.126 152.177L432.658 133.464V111.078L479.126 129.793V152.177Z" fill="#F2C5A0"/>
<path d="M479.126 200.136L432.658 181.423V159.041L479.126 177.754V200.136Z" fill="#F2C5A0"/>
<path d="M479.126 248.097L432.658 229.384V206.998L479.126 225.713V248.097Z" fill="#F2C5A0"/>
<path d="M791.08 380.999H744.609V379.785L791.08 379.545V380.999Z" fill="#D7E6FD"/>
<path d="M744.609 379.787V31.2461C760.211 34.4347 774.075 39.0145 786.418 44.7685C774.075 39.0145 760.211 34.4347 744.609 31.2461V38.6848L791.08 57.3995V379.547L744.609 379.787ZM744.609 207.002V229.388L791.08 248.101V225.717L744.609 207.002ZM744.609 159.044V181.426L791.08 200.14V177.758L744.609 159.044ZM744.609 111.083V133.469L791.08 152.182V129.798L744.609 111.083ZM744.609 63.1253V85.5112L791.08 104.225V81.8401L744.609 63.1253Z" fill="#CDE0FB"/>
<path d="M791.081 47.0394C789.553 46.2647 787.996 45.5061 786.419 44.7676C787.996 45.5021 789.553 46.2607 791.081 47.0327V47.0394Z" fill="#FCCBA2"/>
<path d="M791.08 57.3995L744.609 38.6848V31.2461C760.211 34.4347 774.075 39.0145 786.418 44.7685C787.995 45.507 789.552 46.2656 791.08 47.0403V57.3995Z" fill="#F2C5A0"/>
<path d="M791.08 104.222L744.609 85.5089V63.123L791.08 81.8378V104.222Z" fill="#F2C5A0"/>
<path d="M791.08 152.177L744.609 133.464V111.078L791.08 129.793V152.177Z" fill="#F2C5A0"/>
<path d="M791.08 200.136L744.609 181.423V159.041L791.08 177.754V200.136Z" fill="#F2C5A0"/>
<path d="M791.08 248.097L744.609 229.384V206.998L791.08 225.713V248.097Z" fill="#F2C5A0"/>
<path d="M286.705 332.886H713.316L857.393 318.55C857.393 318.55 831.613 247.601 824.585 246.537C817.558 245.47 300.218 246.537 300.218 246.537L286.705 332.886Z" fill="#1D2949"/>
<path d="M918.945 325.902C908.329 330.699 844.155 331.766 844.155 331.766C844.155 331.766 845.603 244.895 779.495 255.02C713.392 265.15 724.948 337.249 724.948 337.249L407.134 343.514C407.134 343.514 412.297 251.932 342.13 261.567C283.83 269.569 298.807 343.168 298.807 343.168C240.688 346.485 234.683 324.691 234.683 324.691V315.69H238.328V292.002H234.683V274.359L246.907 243.444L246.91 243.44C267.505 204.359 428.985 193.702 428.985 193.702C453.512 178.128 473.847 166.554 489.752 158.148C515.127 144.739 544.054 131.662 572.047 128.609C647.846 120.332 710.174 129.711 725.454 132.445C743.304 135.643 833.055 178.81 839.812 182.54C846.566 186.27 901.664 191.331 908.739 192.282C915.82 193.225 915.605 201.042 915.605 201.042L916.577 207.979L920.277 234.393L921.181 240.836C926.329 243.681 926.335 251.823 926.335 251.823C926.335 251.823 929.557 321.105 918.945 325.902Z" fill="#F99746"/>
<path d="M302.588 318.551C302.588 288.699 324.499 264.5 351.528 264.5C378.555 264.5 400.465 288.699 400.465 318.551C400.465 348.406 378.555 372.607 351.528 372.607C324.499 372.607 302.588 348.406 302.588 318.551Z" fill="#2C3A64"/>
<path d="M351.527 280.19C332.372 280.19 316.793 297.4 316.793 318.553C316.793 339.707 332.372 356.918 351.527 356.918C370.68 356.918 386.262 339.707 386.262 318.553C386.262 297.4 370.68 280.19 351.527 280.19ZM351.527 360.827C330.422 360.827 313.255 341.865 313.255 318.553C313.255 295.245 330.422 276.281 351.527 276.281C372.63 276.281 389.799 295.245 389.799 318.553C389.799 341.865 372.63 360.827 351.527 360.827Z" fill="#AFCDFB"/>
<path d="M358.061 358.912H344.349L348.751 317.402L343.718 277.977L359.391 279.045L354.166 317.402L358.061 358.912Z" fill="#AFCDFB"/>
<path d="M323.076 344.895L316.22 331.777L350.969 315.239L379.37 290.717L386.369 306.243L353.679 320.421L323.076 344.895Z" fill="#AFCDFB"/>
<path d="M317.577 302.906L325.11 290.252L354.095 317.121L386.685 334.138L377.266 348.017L351.118 322.12L317.577 302.906Z" fill="#AFCDFB"/>
<path d="M338.684 318.478C338.684 310.69 344.399 304.377 351.451 304.377C358.506 304.377 364.221 310.69 364.221 318.478C364.221 326.267 358.506 332.584 351.451 332.584C344.399 332.584 338.684 326.267 338.684 318.478Z" fill="#AFCDFB"/>
<path d="M736.53 318.551C736.53 288.699 758.44 264.5 785.47 264.5C812.497 264.5 834.408 288.699 834.408 318.551C834.408 348.406 812.497 372.607 785.47 372.607C758.44 372.607 736.53 348.406 736.53 318.551Z" fill="#2C3A64"/>
<path d="M785.47 280.19C766.318 280.19 750.736 297.4 750.736 318.553C750.736 339.707 766.318 356.918 785.47 356.918C804.621 356.918 820.203 339.707 820.203 318.553C820.203 297.4 804.621 280.19 785.47 280.19ZM785.47 360.827C764.367 360.827 747.197 341.865 747.197 318.553C747.197 295.245 764.367 276.281 785.47 276.281C806.572 276.281 823.742 295.245 823.742 318.553C823.742 341.865 806.572 360.827 785.47 360.827Z" fill="#AFCDFB"/>
<path d="M792.004 358.912H778.291L782.693 317.402L777.664 277.977L793.333 279.045L788.111 317.402L792.004 358.912Z" fill="#AFCDFB"/>
<path d="M757.017 344.895L750.161 331.777L784.911 315.239L813.314 290.717L820.309 306.243L787.62 320.421L757.017 344.895Z" fill="#AFCDFB"/>
<path d="M751.52 302.906L759.055 290.252L788.039 317.121L820.628 334.138L811.209 348.017L785.064 322.12L751.52 302.906Z" fill="#AFCDFB"/>
<path d="M772.625 318.478C772.625 310.69 778.344 304.377 785.397 304.377C792.449 304.377 798.164 310.69 798.164 318.478C798.164 326.267 792.449 332.584 785.397 332.584C778.344 332.584 772.625 326.267 772.625 318.478Z" fill="#AFCDFB"/>
<path d="M302.203 243.266H270.189C259.595 243.266 249.831 249.596 244.661 259.808L243.563 261.979C242.455 264.168 243.888 266.868 246.161 266.868H284.688C287.35 266.868 289.889 265.641 291.691 263.481L304.257 248.439C305.906 246.466 304.639 243.266 302.203 243.266Z" fill="#F9DDBF"/>
<path d="M263.324 318.551H252.398C248.783 318.551 245.45 320.713 243.686 324.199L243.311 324.937C242.933 325.685 243.422 326.607 244.197 326.607H257.348C258.256 326.607 259.122 326.189 259.737 325.452L264.024 320.319C264.589 319.643 264.155 318.551 263.324 318.551Z" fill="#1D2949"/>
<path d="M792.495 188.582L629.131 192.864C625.926 192.95 623.292 190.106 623.292 186.567V144.999C623.292 141.726 625.714 139.091 628.679 139.135C698.343 140.206 722.216 142.351 736.534 147.806C749.162 152.616 778.69 172.404 793.955 182.443C796.527 184.139 795.493 188.503 792.495 188.582Z" fill="#AFCDFB"/>
<path d="M609.075 138.866C611.726 138.899 614.319 138.934 616.857 138.969V193.191L459.257 197.323C457.203 197.377 456.355 194.437 458.054 193.167C476.47 179.46 538.15 137.977 609.075 138.866Z" fill="#AFCDFB"/>
<path d="M791.939 188.594L791.852 188.598V181.061C792.407 181.43 792.951 181.787 793.476 182.13C796.192 183.915 795.098 188.513 791.939 188.594Z" fill="#AFCDFB"/>
<path d="M623.292 195.373L603.99 193.684L605.277 135.697H623.292V195.373Z" fill="#F99746"/>
<path d="M745.539 195.377H736.53V143.305L745.539 149.276V195.377Z" fill="#F99746"/>
<path d="M478.921 179.096L483.726 196.678L457.438 197.367C455.904 197.406 455.242 195.237 456.488 194.245C462.422 189.53 473.422 181.13 478.921 179.096Z" fill="#2C3A64"/>
<path d="M480.089 180.006L479.198 180.555C478.16 181.194 477.151 181.825 476.165 182.448C475.715 182.734 475.277 183.011 474.842 183.29C473.438 184.188 472.093 185.063 470.841 185.894C470.39 186.192 469.956 186.48 469.526 186.77C469.222 186.972 468.921 187.177 468.62 187.379C468.417 187.514 468.228 187.644 468.042 187.771L467.905 187.863C467.318 188.261 466.746 188.653 466.193 189.033L465.83 189.284C465.191 189.73 464.569 190.166 463.969 190.588C463.13 191.178 462.341 191.741 461.599 192.276L460.609 192.997C459.956 193.47 459.346 193.92 458.775 194.345C458.088 194.86 457.458 195.333 456.893 195.766L456.632 195.964L483.695 195.258L600.371 192.197C602.368 192.146 603.99 190.309 603.99 188.103V143.169C603.99 142.404 603.717 141.687 603.219 141.151C602.719 140.616 602.064 140.331 601.365 140.352C601.014 140.363 600.663 140.376 600.311 140.386L599.413 140.424C599.063 140.434 598.708 140.451 598.355 140.469L598.314 140.471C597.91 140.489 597.513 140.51 597.115 140.53C596.618 140.557 596.124 140.585 595.63 140.616L595.432 140.627C594.99 140.654 594.55 140.684 594.104 140.715L591.834 140.884C591.449 140.915 591.063 140.953 590.675 140.986C590.141 141.032 589.635 141.076 589.132 141.124C588.598 141.175 588.072 141.227 587.547 141.285C587.15 141.322 586.762 141.364 586.37 141.408C586.009 141.446 585.667 141.485 585.329 141.529C584.975 141.566 584.645 141.604 584.319 141.645C583.841 141.7 583.384 141.758 582.925 141.817L582.815 141.83C581.163 142.044 579.47 142.281 577.787 142.538C576.885 142.675 575.981 142.822 575.087 142.97L575.013 142.983C574.499 143.069 573.984 143.155 573.471 143.247C572.45 143.427 571.436 143.612 570.427 143.803L569.937 143.896C569.591 143.966 569.25 144.03 568.905 144.098C568.364 144.205 567.83 144.311 567.296 144.421C566.82 144.52 566.348 144.62 565.87 144.72C565.391 144.823 564.916 144.925 564.441 145.028L564.359 145.049C563.859 145.156 563.363 145.266 562.866 145.382C562.36 145.495 561.86 145.609 561.362 145.725C560.868 145.842 560.371 145.959 559.874 146.078C559.38 146.198 558.887 146.319 558.389 146.442C558.019 146.535 557.652 146.627 557.29 146.72L556.911 146.816C556.42 146.94 555.932 147.067 555.448 147.193C554.618 147.41 553.804 147.626 552.996 147.848C552.829 147.894 552.674 147.938 552.518 147.982L552.397 148.013C550.515 148.535 548.619 149.084 546.755 149.65C545.811 149.931 544.876 150.223 543.944 150.516L542.458 150.989C541.574 151.277 540.685 151.572 539.8 151.864C539.224 152.06 538.647 152.251 538.075 152.45C537.234 152.738 536.401 153.03 535.568 153.325C535.112 153.483 534.662 153.644 534.211 153.809L534.152 153.83C533.72 153.987 533.286 154.145 532.854 154.303L531.238 154.9C530.812 155.062 530.387 155.219 529.968 155.381L528.833 155.813C523.671 157.799 518.468 159.985 513.36 162.312C512.602 162.657 511.844 163.005 511.092 163.352C509.648 164.023 508.352 164.638 507.135 165.231L505.907 165.829C505.094 166.223 504.292 166.621 503.499 167.019C503.093 167.219 502.698 167.414 502.31 167.617C501.117 168.217 499.952 168.814 498.803 169.414L497.65 170.018C493.972 171.957 490.288 173.991 486.709 176.063C486.421 176.232 486.128 176.404 485.836 176.571L485.22 176.932C483.522 177.926 481.797 178.96 480.089 180.006ZM456.296 198.816C455.222 198.816 454.283 198.068 453.948 196.932C453.603 195.779 453.979 194.537 454.882 193.844L455.429 193.428C455.998 192.99 456.634 192.513 457.333 191.987C457.911 191.559 458.53 191.106 459.189 190.626L460.185 189.902C460.94 189.356 461.738 188.787 462.586 188.189C463.19 187.767 463.813 187.329 464.464 186.876L464.569 186.803C464.659 186.741 464.753 186.676 464.845 186.614C465.392 186.238 465.967 185.842 466.561 185.441L466.691 185.352C466.886 185.218 467.082 185.085 467.284 184.951C467.576 184.751 467.883 184.546 468.198 184.336C468.628 184.045 469.07 183.753 469.518 183.458C470.779 182.617 472.139 181.735 473.553 180.833C473.987 180.552 474.433 180.27 474.885 179.982C475.773 179.415 476.693 178.843 477.635 178.263L478.296 177.855C480.194 176.688 482.118 175.532 484.015 174.42L484.637 174.057C484.926 173.888 485.214 173.72 485.507 173.549C489.119 171.459 492.835 169.407 496.551 167.448L497.704 166.845C498.861 166.24 500.04 165.636 501.232 165.033C501.627 164.83 502.031 164.63 502.441 164.428C503.232 164.027 504.047 163.629 504.867 163.227L506.1 162.627C507.327 162.03 508.635 161.41 510.095 160.73C510.853 160.38 511.614 160.033 512.378 159.683C517.528 157.336 522.779 155.133 527.985 153.129L529.126 152.694C529.554 152.529 529.982 152.368 530.414 152.207L532.039 151.607C532.477 151.444 532.915 151.288 533.354 151.129L533.407 151.108C533.863 150.945 534.326 150.78 534.789 150.617C535.624 150.32 536.466 150.024 537.312 149.736C537.886 149.537 538.47 149.342 539.055 149.143C539.949 148.847 540.843 148.552 541.741 148.257L543.239 147.784C544.18 147.485 545.124 147.193 546.075 146.909C547.954 146.335 549.874 145.78 551.769 145.259L551.884 145.228C552.052 145.18 552.22 145.132 552.387 145.087C553.195 144.868 554.022 144.644 554.851 144.428C555.338 144.298 555.838 144.171 556.339 144.043L556.714 143.948C557.085 143.856 557.457 143.759 557.83 143.669C558.324 143.546 558.825 143.423 559.325 143.302C559.825 143.183 560.325 143.062 560.828 142.946C561.334 142.826 561.838 142.712 562.344 142.6C562.841 142.483 563.35 142.369 563.859 142.259L563.943 142.242C564.423 142.136 564.903 142.03 565.385 141.93C565.86 141.828 566.339 141.727 566.824 141.628C567.364 141.515 567.904 141.408 568.448 141.302C568.793 141.234 569.144 141.166 569.495 141.096L569.986 141.003C571.014 140.808 572.04 140.62 573.067 140.441C573.581 140.348 574.099 140.262 574.621 140.174L574.698 140.159C575.612 140.009 576.522 139.862 577.435 139.723C579.135 139.463 580.846 139.224 582.52 139.006L582.63 138.993C583.098 138.935 583.568 138.872 584.04 138.821C584.366 138.78 584.711 138.74 585.055 138.705C585.388 138.661 585.754 138.619 586.121 138.582C586.503 138.537 586.904 138.492 587.308 138.454C587.836 138.397 588.371 138.344 588.911 138.293C589.42 138.241 589.936 138.197 590.452 138.153C590.862 138.118 591.253 138.08 591.651 138.049L593.937 137.878C594.387 137.847 594.839 137.82 595.291 137.789L595.49 137.779C595.984 137.748 596.491 137.717 596.997 137.693C597.394 137.671 597.798 137.649 598.206 137.631H598.242C598.606 137.614 598.967 137.596 599.33 137.583L600.225 137.545C600.582 137.532 600.939 137.521 601.293 137.511C602.701 137.462 604.011 138.039 605.013 139.114C606.012 140.191 606.562 141.628 606.562 143.169V188.103C606.562 191.84 603.812 194.95 600.433 195.038L456.358 198.816H456.296Z" fill="#1D2949"/>
<path d="M748.472 154.083C748.103 154.083 747.804 154.238 747.625 154.361C747.034 154.769 746.68 155.521 746.68 156.372V186.714C746.68 187.301 746.882 187.86 747.237 188.24C747.525 188.553 747.892 188.714 748.27 188.707L792.911 187.427C793.821 187.4 794.129 186.481 794.203 186.195C794.368 185.544 794.301 184.593 793.558 184.059L793.461 183.989C793.365 183.921 793.262 183.848 793.163 183.777C792.461 183.272 791.74 182.754 790.989 182.216L786.654 179.128C785.487 178.297 784.275 177.439 783.03 176.561C782.514 176.198 781.992 175.83 781.464 175.463C769.124 166.799 759.422 160.328 752.623 156.224L752.07 155.892C752.014 155.857 751.958 155.822 751.902 155.792C751.409 155.497 750.473 154.975 749.171 154.272C748.923 154.135 748.687 154.083 748.472 154.083ZM748.233 191.225C747.271 191.225 746.357 190.807 745.646 190.042C744.853 189.191 744.399 187.976 744.399 186.714V156.372C744.399 154.646 744.632 152.443 745.897 151.571C747.044 150.783 748.969 151.359 750.178 152.011C751.523 152.741 752.461 153.264 752.964 153.565C753.018 153.596 753.092 153.64 753.167 153.685L753.717 154.014C760.559 158.145 770.305 164.644 782.685 173.336C783.209 173.702 783.735 174.073 784.256 174.441C785.503 175.318 786.717 176.176 787.885 177.007L792.228 180.102C792.983 180.644 793.707 181.162 794.396 181.659C794.49 181.725 794.598 181.804 794.703 181.879L794.797 181.948C796.245 182.988 796.884 184.971 796.394 186.881C795.931 188.697 794.586 189.898 792.971 189.943L792.498 189.956L748.326 191.223C748.295 191.225 748.264 191.225 748.233 191.225Z" fill="#1D2949"/>
<path d="M478.921 179.096L483.726 196.678L457.438 197.367C455.904 197.406 455.242 195.237 456.488 194.245C462.422 189.53 473.422 181.13 478.921 179.096Z" fill="#2C3A64"/>
<path d="M628.601 140.555C627.536 140.555 626.535 141.008 625.777 141.835C625.003 142.675 624.577 143.797 624.577 144.995V186.57C624.577 187.894 625.051 189.133 625.911 190.056C626.768 190.982 627.908 191.48 629.097 191.442L735.245 188.66V148.8C721.505 143.412 697.941 141.621 628.659 140.555H628.601ZM628.986 194.286C627.153 194.286 625.429 193.511 624.111 192.091C622.755 190.626 622.006 188.666 622.006 186.57V144.995C622.006 143.031 622.701 141.193 623.969 139.809C625.236 138.43 626.917 137.7 628.693 137.713C700.597 138.819 722.865 140.62 736.985 146.473L737.82 146.819V191.435L629.159 194.283C629.101 194.283 629.042 194.286 628.986 194.286Z" fill="#1D2949"/>
<path d="M920.278 234.394H889.521C884.945 234.394 880.62 232.074 877.79 228.104L866.159 211.775C865.063 210.238 866.053 207.98 867.828 207.98H916.578L920.278 234.394Z" fill="#A9453D"/>
<path d="M428.986 193.701L427.735 196.017C422.876 204.993 414.355 210.778 404.91 211.515C379.458 213.495 328.089 217.493 300.953 219.579C264.247 222.4 247.175 243.117 246.91 243.439C267.505 204.358 428.986 193.701 428.986 193.701Z" fill="#1D2949"/>
<path d="M614.929 320.49L613.643 320.472L615.572 138.428L616.858 138.441L614.929 320.49Z" fill="#1D2949"/>
<path d="M406.524 326.187L406.498 324.767L724.467 317.84L724.493 319.259L406.524 326.187Z" fill="#1D2949"/>
<path d="M596.622 230.908C596.622 232.833 588.846 234.394 579.253 234.394C569.657 234.394 561.882 232.833 561.882 230.908C561.882 228.983 569.657 227.422 579.253 227.422C588.846 227.422 596.622 228.983 596.622 230.908Z" fill="#ED823A"/>
<path d="M758.406 230.908C758.406 232.833 750.627 234.394 741.034 234.394C731.441 234.394 723.662 232.833 723.662 230.908C723.662 228.983 731.441 227.422 741.034 227.422C750.627 227.422 758.406 228.983 758.406 230.908Z" fill="#ED823A"/>
<path d="M712.078 318.591L710.792 318.514C711.68 300.415 716.539 285.163 725.228 273.178C732.181 263.588 741.581 256.071 753.168 250.834C770.798 242.863 788.254 242.658 791.851 242.716V188.582H793.137V244.181L792.47 244.15C792.273 244.143 773.048 243.371 753.618 252.166C742.246 257.316 733.026 264.69 726.217 274.087C717.708 285.832 712.951 300.806 712.078 318.591Z" fill="#1D2949"/>
<path d="M445.267 324.63C444.767 277.675 447.134 245.189 449.209 226.203C451.458 205.603 453.866 195.974 453.887 195.879L455.128 196.262C455.031 196.638 445.599 234.973 446.553 324.617L445.267 324.63Z" fill="#1D2949"/>
<path d="M628.679 139.848H603.51V138.428H628.679V139.848Z" fill="#1D2949"/>
<path d="M390.361 209.112L388.829 208.435L407.167 157.736L408.699 158.412L390.361 209.112Z" fill="#2B478B"/>
<path d="M387.291 209.464C387.291 208.716 388.322 208.113 389.597 208.113C390.867 208.113 391.897 208.716 391.897 209.464C391.897 210.21 390.867 210.817 389.597 210.817C388.322 210.817 387.291 210.21 387.291 209.464Z" fill="#2B478B"/>
<path d="M428.225 199.448C427.464 199.289 426.775 198.775 426.374 197.968C426.228 197.68 411.73 168.8 388.999 135.339C368.104 104.578 335.784 63.5377 300.463 42.7066C299.159 41.9386 298.665 40.1439 299.36 38.7031C300.059 37.2623 301.684 36.7168 302.988 37.4848C319.012 46.9379 335.728 61.1291 352.669 79.6683C366.166 94.4385 379.851 111.997 393.336 131.856C416.275 165.636 430.922 194.818 431.065 195.11C431.78 196.54 431.31 198.339 430.015 199.131C429.446 199.478 428.816 199.571 428.225 199.448Z" fill="#F99746"/>
<path d="M842.083 368.566C836.917 373.551 831.275 377.288 825.156 379.351L791.086 379.542L744.601 379.782L713.522 379.927L691.432 380.022H690.434L668.037 380.119H641.04L611.787 380.07H588.826L558.88 380.022H535.919L506.668 379.975H483.664L448.377 379.927H444.426L421.512 379.879H392.171L369.254 379.83L339.306 379.782H316.389L287.092 379.734H256.189L258.967 379.206L260.182 378.966L266.909 377.672L298.031 371.633H298.073L314 368.566H842.083Z" fill="#AFCDFB"/>
<path d="M668.569 76.1518H543.611C541.384 76.1518 539.561 74.1373 539.561 71.6738V65.5834C539.561 63.12 541.384 61.1055 543.611 61.1055H668.569C670.796 61.1055 672.62 63.12 672.62 65.5834V71.6738C672.62 74.1373 670.796 76.1518 668.569 76.1518Z" fill="#F9DDBF"/>
<path d="M19.2311 235.925L26.279 235.809C27.3008 235.791 28.1417 236.695 28.1575 237.823L28.6817 276.616C28.6975 277.744 27.8808 278.675 26.8591 278.692L19.8099 278.809C18.7882 278.826 17.9472 277.923 17.9314 276.794L17.4084 238.002C17.3927 236.873 18.2081 235.943 19.2311 235.925Z" fill="#D2E4FF"/>
<path d="M26.3348 262.06C26.3615 264.024 24.9381 265.645 23.1579 265.672C21.3765 265.703 19.9106 264.132 19.8851 262.165C19.8584 260.197 21.2806 258.58 23.0608 258.549C24.8422 258.518 26.3081 260.089 26.3348 262.06Z" fill="#AED3FF"/>
<path d="M25.2603 262.079C25.2651 262.484 24.9727 262.818 24.6062 262.825C24.2397 262.827 23.9376 262.506 23.9327 262.101C23.9266 261.696 24.2191 261.362 24.5856 261.356C24.9533 261.349 25.2542 261.675 25.2603 262.079Z" fill="#D2E4FF"/>
<path d="M22.1941 262.126C22.1989 262.531 21.9065 262.867 21.54 262.871C21.1723 262.878 20.8714 262.555 20.8653 262.15C20.8604 261.745 21.1529 261.413 21.5194 261.406C21.8871 261.4 22.188 261.721 22.1941 262.126Z" fill="#D2E4FF"/>
<path d="M26.1942 251.661C26.2209 253.627 24.7987 255.246 23.0173 255.277C21.2359 255.305 19.7712 253.733 19.7445 251.768C19.7178 249.802 21.14 248.182 22.9214 248.151C24.7016 248.124 26.1675 249.695 26.1942 251.661Z" fill="#AED3FF"/>
<path d="M25.1187 251.678C25.1247 252.083 24.8311 252.415 24.4646 252.423C24.0981 252.43 23.796 252.107 23.7911 251.702C23.785 251.294 24.0787 250.961 24.4452 250.957C24.8117 250.95 25.1138 251.273 25.1187 251.678Z" fill="#D2E4FF"/>
<path d="M22.0523 251.732C22.0571 252.138 21.7647 252.47 21.3982 252.477C21.0317 252.484 20.7296 252.158 20.7247 251.753C20.7186 251.348 21.0111 251.015 21.3776 251.008C21.7452 251.005 22.0462 251.327 22.0523 251.732Z" fill="#D2E4FF"/>
<path d="M26.0536 241.261C26.0803 243.23 24.6581 244.846 22.8767 244.877C21.0965 244.908 19.6306 243.337 19.6039 241.366C19.5772 239.4 20.9994 237.781 22.7808 237.754C24.5622 237.724 26.0269 239.294 26.0536 241.261Z" fill="#AED3FF"/>
<path d="M24.978 241.282C24.9841 241.687 24.6904 242.021 24.324 242.028C23.9575 242.03 23.6553 241.709 23.6505 241.304C23.6444 240.899 23.9381 240.565 24.3046 240.559C24.671 240.552 24.9732 240.878 24.978 241.282Z" fill="#D2E4FF"/>
<path d="M21.9116 241.331C21.9177 241.735 21.624 242.068 21.2576 242.076C20.8911 242.082 20.5889 241.759 20.5841 241.355C20.578 240.95 20.8705 240.613 21.2381 240.609C21.6046 240.603 21.9056 240.926 21.9116 241.331Z" fill="#D2E4FF"/>
<path d="M26.4742 272.456C26.5009 274.422 25.0787 276.043 23.2985 276.073C21.5171 276.1 20.0512 274.529 20.0258 272.563C19.9991 270.597 21.4213 268.978 23.2015 268.95C24.9829 268.919 26.4475 270.491 26.4742 272.456Z" fill="#AED3FF"/>
<path d="M25.4011 272.474C25.4059 272.879 25.1135 273.212 24.747 273.219C24.3793 273.226 24.0784 272.903 24.0723 272.498C24.0675 272.093 24.3599 271.761 24.7264 271.754C25.0929 271.746 25.395 272.069 25.4011 272.474Z" fill="#D2E4FF"/>
<path d="M22.3335 272.528C22.3395 272.933 22.0471 273.265 21.6794 273.272C21.3129 273.278 21.012 272.953 21.0059 272.548C21.0011 272.143 21.2935 271.811 21.66 271.807C22.0265 271.8 22.3286 272.123 22.3335 272.528Z" fill="#D2E4FF"/>
<path d="M18.5859 251.513C18.5859 249.166 20.3079 247.266 22.4303 247.266C24.5539 247.266 26.2758 249.166 26.2758 251.513C26.2758 253.857 24.5539 255.758 22.4303 255.758C20.3079 255.758 18.5859 253.857 18.5859 251.513Z" fill="#2A4E96"/>
<path d="M44.4833 301.878C36.2741 300.204 36.6296 284.486 36.916 271.859C37.007 267.821 37.0932 264.005 36.8529 261.37C36.6308 258.948 35.7316 257.085 34.1808 255.832C30.3583 252.743 23.7909 254.226 23.7254 254.243L23.5264 253.201C23.8128 253.131 30.584 251.608 34.7499 254.971C36.5325 256.412 37.5628 258.526 37.8116 261.26C38.0591 263.967 37.9717 267.814 37.8795 271.886C37.6028 284.108 37.2594 299.322 44.6593 300.832L44.4833 301.878Z" fill="#2A4E96"/>
<path d="M137.903 365.617H56.9629V276.221H137.903V365.617Z" fill="#CDE0FB"/>
<path d="M67.7659 372.282H64.6582V365.619H67.7659V372.282Z" fill="#AFCDFB"/>
<path d="M133.7 372.282H130.592V365.619H133.7V372.282Z" fill="#AFCDFB"/>
<path d="M53.3626 372.282H50.2549V365.619H53.3626V372.282Z" fill="#AFCDFB"/>
<path d="M137.903 276.221H56.9637L45.3906 221.643L126.624 221.029L137.903 276.221Z" fill="#AFCDFB"/>
<path d="M101.95 255.479L60.8548 255.79L55.001 228.179L96.0958 227.871L101.95 255.479Z" fill="#CDE0FB"/>
<path d="M104.586 236.075C103.683 230.977 106.692 226.842 111.311 226.842C115.928 226.842 120.405 230.977 121.309 236.075C122.212 241.176 119.201 245.311 114.584 245.311C109.966 245.311 105.49 241.176 104.586 236.075Z" fill="#F99746"/>
<path d="M105.764 236.075C104.86 230.977 107.87 226.842 112.488 226.842C117.106 226.842 121.582 230.977 122.486 236.075C123.39 241.176 120.379 245.311 115.762 245.311C111.143 245.311 106.668 241.176 105.764 236.075Z" fill="#7C9AF2"/>
<path d="M106.639 236.078C105.829 231.511 108.526 227.809 112.66 227.809C116.796 227.809 120.804 231.511 121.613 236.078C122.422 240.645 119.727 244.347 115.592 244.347C111.456 244.347 107.448 240.645 106.639 236.078Z" fill="#AFCDFB"/>
<path d="M108.708 259.341C107.804 254.241 110.815 250.107 115.432 250.107C120.051 250.107 124.526 254.241 125.43 259.341C126.334 264.442 123.323 268.577 118.706 268.577C114.089 268.577 109.612 264.442 108.708 259.341Z" fill="#F99746"/>
<path d="M109.888 259.341C108.984 254.241 111.994 250.107 116.612 250.107C121.229 250.107 125.706 254.241 126.61 259.341C127.514 264.442 124.503 268.577 119.886 268.577C115.267 268.577 110.792 264.442 109.888 259.341Z" fill="#7C9AF2"/>
<path d="M110.871 259.342C110.074 254.843 112.73 251.193 116.806 251.193C120.881 251.193 124.831 254.843 125.628 259.342C126.427 263.843 123.769 267.494 119.694 267.494C115.619 267.494 111.668 263.843 110.871 259.342Z" fill="#AFCDFB"/>
<path d="M63.7379 264.255C63.3156 261.871 64.7233 259.939 66.8833 259.939C69.0421 259.939 71.1354 261.871 71.5589 264.255C71.9812 266.64 70.5735 268.575 68.4135 268.575C66.2547 268.575 64.1614 266.64 63.7379 264.255Z" fill="#F99746"/>
<path d="M64.291 264.255C63.8675 261.871 65.2763 259.939 67.4351 259.939C69.5952 259.939 71.6884 261.871 72.1107 264.255C72.533 266.64 71.1254 268.575 68.9666 268.575C66.8066 268.575 64.7133 266.64 64.291 264.255Z" fill="#7C9AF2"/>
<path d="M64.7496 264.258C64.377 262.155 65.6197 260.449 67.5248 260.449C69.4312 260.449 71.2782 262.155 71.6507 264.258C72.0244 266.365 70.7818 268.07 68.8767 268.07C66.9703 268.07 65.1233 266.365 64.7496 264.258Z" fill="#AFCDFB"/>
<path d="M74.7803 264.255C74.3567 261.871 75.7656 259.939 77.9244 259.939C80.0844 259.939 82.1777 261.871 82.6 264.255C83.0223 266.64 81.6146 268.575 79.4558 268.575C77.2958 268.575 75.2025 266.64 74.7803 264.255Z" fill="#F99746"/>
<path d="M75.3307 264.255C74.9084 261.871 76.316 259.939 78.4761 259.939C80.6349 259.939 82.7281 261.871 83.1504 264.255C83.5739 266.64 82.1663 268.575 80.0063 268.575C77.8475 268.575 75.753 266.64 75.3307 264.255Z" fill="#7C9AF2"/>
<path d="M75.791 264.258C75.4172 262.155 76.6598 260.449 78.5662 260.449C80.4714 260.449 82.3183 262.155 82.6921 264.258C83.0646 266.365 81.822 268.07 79.9168 268.07C78.0117 268.07 76.1635 266.365 75.791 264.258Z" fill="#AFCDFB"/>
<path d="M87.608 264.255C87.1857 261.871 88.5934 259.939 90.7534 259.939C92.9122 259.939 95.0055 261.871 95.429 264.255C95.8513 266.64 94.4436 268.575 92.2836 268.575C90.1248 268.575 88.0315 266.64 87.608 264.255Z" fill="#F99746"/>
<path d="M88.1598 264.255C87.7375 261.871 89.1452 259.939 91.3039 259.939C93.464 259.939 95.5572 261.871 95.9795 264.255C96.4018 266.64 94.9942 268.575 92.8354 268.575C90.6754 268.575 88.5821 266.64 88.1598 264.255Z" fill="#7C9AF2"/>
<path d="M88.6177 264.258C88.2452 262.155 89.4878 260.449 91.393 260.449C93.2994 260.449 95.1463 262.155 95.5201 264.258C95.8926 266.365 94.65 268.07 92.7448 268.07C90.8384 268.07 88.9915 266.365 88.6177 264.258Z" fill="#AFCDFB"/>
<path d="M45.3906 221.646V365.62H56.9637V276.224L45.3906 221.646Z" fill="#7C9AF2"/>
<path d="M62.5625 374.213C62.5625 371.987 64.1971 370.182 66.2127 370.182C68.2283 370.182 69.8629 371.987 69.8629 374.213C69.8629 376.441 68.2283 378.245 66.2127 378.245C64.1971 378.245 62.5625 376.441 62.5625 374.213Z" fill="#AFCDFB"/>
<path d="M64.4609 374.215C64.4609 373.148 65.2449 372.279 66.212 372.279C67.1792 372.279 67.9631 373.148 67.9631 374.215C67.9631 375.282 67.1792 376.15 66.212 376.15C65.2449 376.15 64.4609 375.282 64.4609 374.215Z" fill="#F99746"/>
<path d="M128.495 374.213C128.495 371.987 130.13 370.182 132.145 370.182C134.162 370.182 135.795 371.987 135.795 374.213C135.795 376.441 134.162 378.245 132.145 378.245C130.13 378.245 128.495 376.441 128.495 374.213Z" fill="#AFCDFB"/>
<path d="M130.395 374.215C130.395 373.148 131.178 372.279 132.146 372.279C133.113 372.279 133.897 373.148 133.897 374.215C133.897 375.282 133.113 376.15 132.146 376.15C131.178 376.15 130.395 375.282 130.395 374.215Z" fill="#F99746"/>
<path d="M48.1582 374.213C48.1582 371.987 49.7928 370.182 51.8084 370.182C53.8252 370.182 55.4586 371.987 55.4586 374.213C55.4586 376.441 53.8252 378.245 51.8084 378.245C49.7928 378.245 48.1582 376.441 48.1582 374.213Z" fill="#AFCDFB"/>
<path d="M50.0576 374.215C50.0576 373.148 50.8415 372.279 51.8087 372.279C52.7758 372.279 53.561 373.148 53.561 374.215C53.561 375.282 52.7758 376.15 51.8087 376.15C50.8415 376.15 50.0576 375.282 50.0576 374.215Z" fill="#F99746"/>
<path d="M91.7939 304.142H67.7656V284.479H91.7939V304.142Z" fill="#DDE7FE"/>
<path d="M132.145 304.142H96.5586V284.479H132.145V304.142Z" fill="#7C9AF2"/>
<path d="M87.7536 344.232H62.3492C61.9512 344.232 61.626 343.873 61.626 343.434C61.626 342.994 61.9512 342.635 62.3492 342.635H87.7536C88.1516 342.635 88.4781 342.994 88.4781 343.434C88.4781 343.873 88.1516 344.232 87.7536 344.232Z" fill="#7C9AF2"/>
<path d="M62.3492 347.395H87.7536C88.1516 347.395 88.4781 347.755 88.4781 348.195C88.4781 348.634 88.1516 348.994 87.7536 348.994H62.3492C61.9512 348.994 61.626 348.634 61.626 348.195C61.626 347.755 61.9512 347.395 62.3492 347.395Z" fill="#7C9AF2"/>
<path d="M62.3492 352.166H87.7536C88.1516 352.166 88.4781 352.527 88.4781 352.966C88.4781 353.404 88.1516 353.765 87.7536 353.765H62.3492C61.9512 353.765 61.626 353.404 61.626 352.966C61.626 352.527 61.9512 352.166 62.3492 352.166Z" fill="#7C9AF2"/>
<path d="M281.946 211.829C281.946 211.829 288.454 211.75 291.853 212.497C295.251 213.243 301.067 215.541 299.19 216.1C297.313 216.656 289.846 217.47 287.82 217.844C285.795 218.218 284.061 220.701 281.946 220.332C279.827 219.958 276.866 216.725 276.866 216.725L281.946 211.829Z" fill="#FFB27D"/>
<path d="M289.508 221.572L281.944 220.33C281.944 220.33 283.354 216.912 284.581 217.842C285.812 218.772 288.185 219.527 288.915 219.802C289.649 220.072 289.508 221.572 289.508 221.572Z" fill="#FFB27D"/>
<path d="M279.948 215.054C281.964 212.408 281.946 211.828 281.946 211.828C281.946 211.828 263.014 185.944 261.334 183.432C259.655 180.916 245.616 139.553 245.616 139.553C233.797 137.889 225.405 151.953 231.455 163.29C238.685 176.836 246.302 190.873 248.436 193.941C255.655 204.314 276.342 217.843 276.342 217.843C276.342 217.843 278.367 217.128 279.948 215.054Z" fill="#233862"/>
<path d="M315.099 214.461L314.526 210.875L331.694 205.22L332.266 208.807L315.099 214.461Z" fill="#AED3FF"/>
<path d="M268.091 208.355L268.061 208.396C267.118 209.611 265.45 209.824 264.283 208.88C262.975 207.824 262.754 205.785 263.767 204.42L263.784 204.395C264.149 203.912 263.705 203.205 263.176 203.439C262.421 203.768 261.738 204.341 261.226 205.137C259.973 207.085 260.227 209.817 261.813 211.447C263.676 213.358 266.582 213.118 268.17 210.976C268.639 210.342 268.939 209.619 269.075 208.867C269.189 208.235 268.463 207.862 268.091 208.355Z" fill="#AED3FF"/>
<path d="M252.363 229.555L252.393 229.517C253.284 228.257 253.147 226.409 252.079 225.327C250.883 224.12 249.031 224.28 248.018 225.646L248.001 225.67C247.644 226.161 246.929 225.818 247.031 225.201C247.177 224.319 247.548 223.464 248.156 222.754C249.642 221.014 252.113 220.754 253.872 222.151C255.937 223.79 256.293 226.988 254.704 229.126C254.235 229.761 253.65 230.227 253.01 230.522C252.471 230.769 251.996 230.058 252.363 229.555Z" fill="#AED3FF"/>
<path d="M148.667 355.069C148.667 355.069 144.155 359.686 145.035 362.967C145.916 366.251 149.987 368.44 150.538 372.45C151.088 376.462 153.289 378.65 155.27 378.65C157.251 378.65 164.715 378.65 164.715 378.65C164.715 378.65 166.172 375.828 162.651 374.977C159.129 374.125 157.802 369.41 158.021 365.036C158.242 360.658 157.691 354.825 157.691 354.825L150.208 352.879L148.667 355.069Z" fill="#2C3A64"/>
<path d="M204.023 367.666C204.023 367.666 202.924 377.39 204.904 378.483C206.884 379.578 230.548 379.215 230.548 379.215C230.548 379.215 230.548 375.931 226.475 375.204C222.403 374.473 215.249 371.801 214.039 365.843C212.828 359.887 204.023 367.666 204.023 367.666Z" fill="#2C3A64"/>
<path d="M225.429 219.17C225.429 219.17 224.091 237.596 222.52 259.748C220.384 289.836 217.815 326.797 217.56 333.796C217.122 345.957 215.359 365.405 215.359 365.405C215.359 365.405 211.179 370.026 202.812 368.077C202.812 368.077 195.357 340.316 193.227 310.941C193.195 310.458 193.161 309.974 193.128 309.49C191.147 279.584 188.066 216.617 188.066 216.617L225.429 219.17Z" fill="#F99746"/>
<path d="M214.702 233.904L193.227 310.941C193.195 310.458 193.161 309.974 193.128 309.49C191.147 279.584 188.066 216.617 188.066 216.617L214.702 233.904Z" fill="#ED823A"/>
<path d="M219.322 221.353C219.322 221.353 195.219 288.089 179.371 319.45C163.523 350.814 158.571 359.564 158.571 359.564C158.571 359.564 149.49 355.552 148.665 352.818C148.665 352.818 154.725 292.271 165.338 277.514C171.335 269.172 171.533 252.755 174.234 235.819C177.94 212.586 185.936 187.617 185.936 187.617L219.322 221.353Z" fill="#F99746"/>
<path d="M230.36 128.37C230.36 128.37 240.403 147.347 250.042 149.716C250.042 149.716 249.692 144.959 248.071 140.856C247.587 139.627 247.736 138.21 248.49 137.164C248.913 136.574 249.308 136.014 249.674 135.486C252.056 132.028 253.184 129.917 253.184 129.917L249.815 120.276L247.53 113.732C246.49 115.88 245.337 117.712 244.132 119.284C237.92 127.367 230.36 128.37 230.36 128.37Z" fill="#FFB27D"/>
<path d="M244.132 119.283C244.132 119.283 243.063 128.873 249.674 135.485C252.056 132.027 253.184 129.916 253.184 129.916L249.815 120.275C246.304 119.142 244.132 119.283 244.132 119.283Z" fill="#ED975D"/>
<path d="M255.79 131.294C255.79 131.294 241.029 125.167 244.626 115.071C248.224 104.978 248.742 97.3873 258.319 100.873C267.896 104.36 268.344 109.005 267.885 112.698C267.425 116.389 259.723 132.629 255.79 131.294Z" fill="#FFB27D"/>
<path d="M240.512 192.184C240.948 191.223 241.402 190.256 241.874 189.275C244.28 184.309 246.313 179.069 247.85 173.944C249.05 169.967 249.95 166.059 250.49 162.412C251.286 157.041 251.116 152.838 250.334 148.602C250.327 148.569 248.839 142.109 248.827 142.085C239.515 137.477 237.206 125.615 237.206 125.615C237.206 125.615 205.672 132.299 188.478 179.06C188.478 179.06 187.368 182.525 185.936 187.621C185.626 188.725 185.301 189.908 184.968 191.151C182.702 199.592 234.685 205.01 240.512 192.184Z" fill="#2A4E96"/>
<path d="M210.239 159.217C210.239 159.217 201.268 176.562 206.75 189.805C212.23 203.046 225.43 182.716 225.43 182.716L210.239 159.217Z" fill="#233862"/>
<path d="M242.312 96.4343C242.207 96.2119 241.906 95.9746 241.173 95.7387C241.173 95.7387 241.854 95.4747 242.652 95.6596C243.051 94.5405 244.033 92.6332 245.914 92.5957C245.914 92.5957 244.84 92.9174 244.455 94.1156C247.012 92.2767 251.784 91.6897 263.757 95.917C279.537 101.489 271.795 111.672 269.422 112.514C267.048 113.35 262.607 108.225 258.654 107.57C254.703 106.914 252.636 113.011 251.137 113.535C249.639 114.058 250.479 112.668 248.889 111.305C247.3 109.943 246.431 113.207 246.49 115.492C246.55 117.777 243.503 119.984 243.503 119.984C243.503 119.984 243.503 119.984 241.663 116.359C239.822 112.737 240.167 99.4849 241.861 97.0804C242.01 96.8673 242.159 96.6515 242.312 96.4343Z" fill="#2B478B"/>
<path d="M224.867 226.92C225.428 207.277 234.685 205.009 240.512 192.183C240.948 191.222 241.402 190.255 241.874 189.274C244.28 184.308 246.313 179.068 247.85 173.943C249.051 169.966 249.95 166.058 250.49 162.411L234.474 155.692C231.4 154.401 227.941 155.84 226.398 159.048C222.435 167.286 213.925 181.835 202.226 184.552C193.798 186.511 188.804 187.307 185.936 187.62C185.626 188.724 185.301 189.908 184.969 191.15C182.702 199.591 179.563 210.169 180.577 218.019C181.359 224.072 224.822 228.495 224.867 226.92Z" fill="#F99746"/>
<path d="M234.942 126.273C234.942 126.273 238.1 130.534 239.332 141.635C240.378 151.056 238.737 158.406 238.737 158.406L235.997 157.452C235.997 157.452 239.586 141.432 232.51 127.182C232.51 127.182 232.676 126.936 234.942 126.273Z" fill="#F99746"/>
<path d="M238.767 161.678C238.577 160.865 237.825 160.373 237.087 160.584C236.348 160.793 235.904 161.623 236.093 162.436C236.283 163.252 237.035 163.743 237.773 163.534C238.512 163.325 238.956 162.495 238.767 161.678Z" fill="#ED823A"/>
<path d="M407.493 368.566L392.172 379.879L369.255 379.83L384.489 368.566H407.493Z" fill="#F99746"/>
<path d="M459.79 368.566L444.426 379.927L421.512 379.879L436.786 368.566H459.79Z" fill="#F99746"/>
<path d="M298.032 371.639L287.093 379.739H264.133L266.91 377.678L298.032 371.639Z" fill="#F99746"/>
<path d="M354.498 368.566L339.306 379.782H316.39L331.538 368.566H354.498Z" fill="#F99746"/>
<path d="M627.326 368.566L611.788 380.07H588.827L604.366 368.566H627.326Z" fill="#F99746"/>
<path d="M679.629 368.566L664.002 380.119H641.042L656.668 368.566H679.629Z" fill="#F99746"/>
<path d="M522.077 368.566L506.669 379.975H483.665L499.116 368.566H522.077Z" fill="#F99746"/>
<path d="M551.416 368.566L535.921 380.022H558.881L574.376 368.566H551.416Z" fill="#F99746"/>
<path d="M834.142 368.566L819.342 379.542H819.299L796.251 379.639L811.182 368.566H834.142Z" fill="#F99746"/>
<path d="M728.888 368.566L713.522 379.927L691.432 380.022H690.435L705.927 368.566H728.888Z" fill="#F99746"/>
<path d="M781.189 368.566L766.086 379.734L744.601 379.83H742.994L758.228 368.566H781.189Z" fill="#F99746"/>
<path d="M869.862 380.293H10.7936C10.3106 380.293 9.91504 379.854 9.91504 379.323V379.216C9.91504 378.684 10.3106 378.248 10.7936 378.248H869.862C870.347 378.248 870.741 378.684 870.741 379.216V379.323C870.741 379.854 870.347 380.293 869.862 380.293Z" fill="#2E3552"/>
<path d="M263.865 122.603C263.865 122.603 261.302 116.587 261.304 115.513C261.305 114.44 262.231 111.044 262.641 110.938C263.05 110.83 264.297 110.518 264.419 111.15C264.537 111.781 264.112 112.488 264.45 112.306C264.793 112.122 265.825 107.318 267.505 107.015C269.187 106.711 272.911 109.382 273.383 112.161C273.851 114.942 269.847 121.1 269.836 121.58C269.719 125.666 263.865 122.603 263.865 122.603Z" fill="#FBAB74"/>
<path d="M266.351 120.604C262.311 121.022 260.139 122.933 260.139 122.933C260.139 122.933 248.724 143.801 245.88 145.86C243.036 147.92 203.508 158.499 203.508 158.499C203.508 158.499 194.147 173.19 198.587 178.375C200.587 180.707 210.383 181.179 210.714 181.024C225.61 174.069 250.615 162.207 255.881 158.264C267.602 149.487 271.236 123.139 271.236 123.139C271.236 123.139 269.654 120.262 266.351 120.604Z" fill="#2A4E96"/>
<path d="M202.931 95.6649L210.07 92.5978C209.508 91.2901 209.104 90.2319 208.858 89.4233C208.603 88.5932 208.553 87.5607 208.708 86.3259C208.876 85.0604 209.316 83.7793 210.029 82.4827C210.754 81.1554 211.402 79.7087 211.973 78.1426C212.716 76.1474 213.143 74.0973 213.255 71.9924C213.388 69.8782 213.012 67.7921 212.128 65.734C211.474 64.2119 210.586 62.8538 209.463 61.6599C208.353 60.4354 207.065 59.4776 205.6 58.7864C203.568 57.7802 201.382 57.3609 199.041 57.5284C196.722 57.6867 194.426 58.254 192.154 59.2303C190.567 59.9119 189.087 60.84 187.712 62.0146C186.328 63.1679 185.226 64.5047 184.407 66.025C183.419 67.7447 182.878 69.6785 182.785 71.8263C182.683 73.9527 182.974 76.0496 183.659 78.1171L190.734 75.0776C190.298 74.1221 190.055 73.1725 190.005 72.2289C189.968 71.2547 190.161 70.3461 190.586 69.5031C190.959 68.6572 191.547 67.8969 192.349 67.2221C193.151 66.5474 194.078 65.9843 195.128 65.533C196.264 65.0449 197.431 64.7466 198.629 64.6384C199.827 64.5301 200.958 64.768 202.021 65.3523C203.3 66.0221 204.307 67.2146 205.044 68.9297C205.523 70.0445 205.82 71.1487 205.934 72.2424C206.07 73.3269 205.911 74.525 205.459 75.8367C204.9 77.3722 204.301 78.6963 203.661 79.809C203.034 80.8911 202.48 81.967 202 83.0367C201.533 84.0757 201.258 85.2984 201.176 86.7048C201.015 88.2215 201.096 89.7105 201.419 91.1716C201.764 92.6236 202.268 94.1213 202.931 95.6649ZM208.365 108.225L215.472 105.172L212.128 97.3894L205.021 100.443L208.365 108.225Z" fill="#FAC9A0"/>
<path d="M216.722 94.2855L224.459 94.9954C224.589 93.578 224.739 92.4553 224.909 91.6273C225.081 90.7761 225.529 89.8449 226.255 88.8336C227.005 87.8012 228.003 86.8852 229.248 86.0856C230.519 85.2649 231.778 84.3026 233.028 83.1988C234.632 81.7995 235.986 80.2015 237.088 78.4046C238.213 76.6099 238.878 74.5973 239.083 72.3666C239.234 70.7169 239.101 69.0997 238.684 67.5149C238.293 65.9091 237.618 64.4531 236.66 63.1467C235.354 61.293 233.632 59.8815 231.495 58.9122C229.381 57.9451 227.093 57.3485 224.63 57.1226C222.91 56.9648 221.166 57.0743 219.398 57.451C217.632 57.8044 216.026 58.4538 214.58 59.399C212.891 60.4391 211.494 61.8808 210.387 63.7241C209.283 65.5441 208.539 67.5261 208.155 69.67L215.822 70.3734C215.895 69.3257 216.135 68.3752 216.541 67.5221C216.973 66.6479 217.576 65.9418 218.352 65.4037C219.083 64.8382 219.963 64.4502 220.989 64.2398C222.016 64.0294 223.099 63.9764 224.237 64.0808C225.469 64.1938 226.637 64.4884 227.741 64.9646C228.846 65.4408 229.726 66.1894 230.382 67.2103C231.186 68.4087 231.503 69.9374 231.332 71.7962C231.221 73.0045 230.955 74.1165 230.534 75.1323C230.136 76.1502 229.426 77.1277 228.402 78.0648C227.178 79.1475 226.02 80.0253 224.927 80.6983C223.86 81.3502 222.86 82.0317 221.928 82.7429C221.021 83.4329 220.197 84.3765 219.454 85.5737C218.589 86.8299 217.95 88.1772 217.537 89.6155C217.147 91.0559 216.875 92.6126 216.722 94.2855ZM215.506 107.917L223.209 108.623L223.983 100.189L216.28 99.4819L215.506 107.917Z" fill="#FAC9A0"/>
<path d="M154.557 126.126L161.616 122.88C161.022 121.586 160.591 120.539 160.325 119.737C160.049 118.913 159.973 117.882 160.097 116.644C160.233 115.375 160.64 114.083 161.32 112.769C162.011 111.423 162.623 109.961 163.155 108.381C163.847 106.368 164.222 104.307 164.281 102.2C164.36 100.083 163.932 98.0075 162.996 95.9723C162.304 94.4672 161.382 93.132 160.23 91.9668C159.089 90.7706 157.778 89.8455 156.296 89.1916C154.239 88.2369 152.043 87.8729 149.707 88.0993C147.392 88.3161 145.112 88.9411 142.864 89.9744C141.296 90.6957 139.839 91.6609 138.495 92.8698C137.14 94.0576 136.072 95.4217 135.291 96.9623C134.347 98.7063 133.855 100.653 133.816 102.803C133.768 104.931 134.112 107.02 134.849 109.069L141.845 105.852C141.385 104.908 141.118 103.965 141.044 103.023C140.982 102.05 141.153 101.137 141.557 100.283C141.908 99.4284 142.477 98.6535 143.261 97.9587C144.046 97.2639 144.958 96.6777 145.997 96.2001C147.12 95.6834 148.28 95.3559 149.474 95.2174C150.669 95.079 151.806 95.2883 152.884 95.8456C154.178 96.483 155.216 97.6497 155.995 99.3456C156.502 100.448 156.827 101.544 156.969 102.635C157.132 103.716 157.004 104.917 156.585 106.24C156.064 107.789 155.498 109.128 154.887 110.256C154.288 111.354 153.761 112.443 153.308 113.525C152.867 114.575 152.623 115.805 152.577 117.213C152.454 118.733 152.573 120.219 152.933 121.672C153.314 123.115 153.855 124.599 154.557 126.126ZM160.306 138.545L167.333 135.313L163.795 127.618L156.767 130.849L160.306 138.545Z" fill="#FAC9A0"/>
</g>
</svg>
