<svg width="20" height="20" viewBox="0 0 20 20" fill="none" xmlns="http://www.w3.org/2000/svg">
<path d="M7 4.99422C6.46957 4.99422 5.96086 5.20493 5.58579 5.58C5.21071 5.95508 5 6.46378 5 6.99422L7 4.99422ZM1 6.99422C0.999727 7.93139 1.21899 8.85559 1.64021 9.69276C2.06144 10.5299 2.67292 11.2568 3.42564 11.8151C4.17837 12.3734 5.05141 12.7476 5.97479 12.9077C6.89818 13.0679 7.84624 13.0095 8.743 12.7372L11 14.9942H13V16.9942H15V18.9942H18C18.2652 18.9942 18.5196 18.8889 18.7071 18.7013C18.8946 18.5138 19 18.2594 19 17.9942V15.4082C18.9999 15.143 18.8945 14.8887 18.707 14.7012L12.743 8.73722C12.9926 7.91223 13.0614 7.04316 12.945 6.18916C12.8285 5.33516 12.5294 4.51629 12.068 3.78826C11.6066 3.06024 10.9938 2.44016 10.2713 1.97024C9.54878 1.50031 8.73348 1.19157 7.88092 1.06502C7.02836 0.938476 6.15853 0.997099 5.33066 1.2369C4.50279 1.4767 3.7363 1.89205 3.08336 2.45468C2.43042 3.01731 1.90636 3.71401 1.54685 4.49736C1.18735 5.2807 1.00083 6.13231 1 6.99422V6.99422Z" stroke="white" stroke-width="2" stroke-linecap="round" stroke-linejoin="round"/>
</svg>
