<svg width="35" height="35" viewBox="0 0 35 35" fill="none" xmlns="http://www.w3.org/2000/svg">
<g clip-path="url(#clip0)">
<path d="M7.41663e-07 30.0838V26.5686C-0.000196339 25.9229 0.126829 25.2836 0.37382 24.687C0.620811 24.0905 0.982927 23.5484 1.43948 23.0919C1.89602 22.6353 2.43806 22.2732 3.0346 22.0262C3.63115 21.7792 4.27052 21.6522 4.91618 21.6524H21.6524V4.91618C21.6522 4.27052 21.7792 3.63115 22.0262 3.0346C22.2732 2.43806 22.6353 1.89602 23.0919 1.43947C23.5484 0.982927 24.0905 0.620811 24.687 0.37382C25.2836 0.126828 25.9229 -0.000196852 26.5686 2.28978e-07H30.0838C30.7295 -0.000196852 31.3689 0.126828 31.9654 0.37382C32.5619 0.620811 33.104 0.982927 33.5605 1.43947C34.0171 1.89602 34.3792 2.43806 34.6262 3.0346C34.8732 3.63115 35.0002 4.27052 35 4.91618V30.085C35.0002 30.7307 34.8732 31.3701 34.6262 31.9666C34.3792 32.5631 34.0171 33.1052 33.5605 33.5617C33.104 34.0183 32.5619 34.3804 31.9654 34.6274C31.3689 34.8744 30.7295 35.0014 30.0838 35.0012H4.91498C4.26932 35.0012 3.62998 34.8741 3.03349 34.6269C2.43701 34.3798 1.89506 34.0175 1.43863 33.5609C0.98219 33.1042 0.620207 32.5621 0.373361 31.9655C0.126516 31.3689 -0.000353951 30.7295 7.41663e-07 30.0838Z" fill="#223256"/>
<path opacity="0.8" d="M35 4.91618V8.43141C35.0002 9.07707 34.8732 9.71644 34.6262 10.313C34.3792 10.9095 34.0171 11.4516 33.5605 11.9081C33.104 12.3647 32.5619 12.7268 31.9654 12.9738C31.3689 13.2208 30.7295 13.3478 30.0838 13.3476H13.3476V30.0838C13.3478 30.7295 13.2208 31.3689 12.9738 31.9654C12.7268 32.5619 12.3647 33.104 11.9081 33.5605C11.4516 34.0171 10.9095 34.3792 10.313 34.6262C9.71644 34.8732 9.07707 35.0002 8.43141 35H4.91618C4.27052 35.0002 3.63115 34.8732 3.0346 34.6262C2.43806 34.3792 1.89602 34.0171 1.43947 33.5605C0.982927 33.104 0.620811 32.5619 0.37382 31.9654C0.126828 31.3689 -0.000196852 30.7295 2.28978e-07 30.0838V4.91498C-3.92051e-05 4.26942 0.127103 3.63018 0.374165 3.03377C0.621226 2.43736 0.983366 1.89547 1.4399 1.43905C1.89643 0.982629 2.43841 0.620621 3.03488 0.373705C3.63135 0.126789 4.27062 -0.000196792 4.91618 2.2891e-07H30.085C30.7306 -3.92052e-05 31.3698 0.127103 31.9662 0.374165C32.5626 0.621226 33.1045 0.983366 33.5609 1.4399C34.0174 1.89643 34.3794 2.43841 34.6263 3.03488C34.8732 3.63135 35.0002 4.27062 35 4.91618Z" fill="#97D8EA"/>
</g>
<defs>
<clipPath id="clip0">
<rect width="35" height="35" fill="white"/>
</clipPath>
</defs>
</svg>
