<svg width="104" height="85" viewBox="0 0 104 85" fill="none" xmlns="http://www.w3.org/2000/svg">
<path fill-rule="evenodd" clip-rule="evenodd" d="M0.929827 46.0014L28.5075 83.5752L74.6099 82.598L102.907 43.8399L72.8722 0.61638L26.7697 1.59359L0.929827 46.0014ZM82.1396 40.0494C81.7776 22.9694 67.7236 9.41502 50.7491 9.77482C33.7747 10.1346 20.3076 24.2723 20.6697 41.3523C21.0317 58.4323 35.0857 71.9866 52.0602 71.6269C69.0346 71.2671 82.5016 57.1293 82.1396 40.0494Z" fill="#98D8DA"/>
<g clip-path="url(#clip0)">
<path d="M63.6533 37.0137L69.1674 37.0137L69.1674 39.5918L63.6533 39.5918L63.6533 37.0137Z" fill="#4B5BE7"/>
<path d="M70.4272 51.1483L62.3936 51.1483L62.3936 44.4455L64.9131 44.4455L64.9131 48.5702L67.9077 48.5702L67.9077 33.9262L62.9293 30.3504L64.377 28.2402L70.4272 32.5858L70.4272 51.1483Z" fill="#84CAFF"/>
<path d="M38.8066 19.998L64.9113 19.998L64.9113 58.8401L38.8066 58.8401L38.8066 19.998Z" fill="#FF633E"/>
<path d="M51.8594 19.998L64.9121 19.998L64.9121 58.8401L51.8594 58.8401L51.8594 19.998Z" fill="#FF3100"/>
<path d="M36.6191 56.8652L67.0996 56.8652L67.0996 63.998L36.6191 63.998L36.6191 56.8652Z" fill="#CAE8F9"/>
<path d="M43.0439 23.2598L60.6748 23.2598L60.6748 33.8868L43.0439 33.8868L43.0439 23.2598Z" fill="#0089FF"/>
<path d="M38.8066 37.0137L64.9113 37.0137L64.9113 39.5918L38.8066 39.5918L38.8066 37.0137Z" fill="#CAE8F9"/>
<path d="M51.8594 23.2598L60.6751 23.2598L60.6751 33.8868L51.8594 33.8868L51.8594 23.2598Z" fill="#4B5BE7"/>
<path d="M51.8594 37.0137L64.9121 37.0137L64.9121 39.5918L51.8594 39.5918L51.8594 37.0137Z" fill="#B8E0F9"/>
<path d="M51.8594 56.8652L67.0999 56.8652L67.0999 63.998L51.8594 63.998L51.8594 56.8652Z" fill="#B8E0F9"/>
<path d="M56.2927 49.4588L54.1518 50.8174C53.6547 49.9976 52.7972 49.5078 51.8583 49.5078C50.9193 49.5078 50.0618 49.9976 49.5644 50.8174L47.4238 49.4588C48.3837 47.875 50.0415 46.9297 51.8583 46.9297C53.6748 46.9297 55.3325 47.875 56.2927 49.4588Z" fill="#FFDBA9"/>
<path d="M60.0336 46.833L57.892 48.1916C56.585 46.0354 54.3293 44.748 51.8586 44.748C49.3876 44.748 47.1319 46.0354 45.8252 48.1916L43.6836 46.833C45.4538 43.9135 48.5101 42.1699 51.8586 42.1699C55.2078 42.1699 58.2631 43.9135 60.0336 46.833Z" fill="#FFDBA9"/>
<path d="M53.3516 52.9421C53.3516 53.7861 52.6833 54.4702 51.8586 54.4702C51.0338 54.4702 50.3652 53.7861 50.3652 52.9421C50.3652 52.0982 51.0338 51.4141 51.8586 51.4141C52.6833 51.4141 53.3516 52.0982 53.3516 52.9421Z" fill="#FFDBA9"/>
<path d="M53.3524 52.9421C53.3524 53.7861 52.6841 54.4702 51.8594 54.4702L51.8594 51.4141C52.6841 51.4141 53.3524 52.0982 53.3524 52.9421Z" fill="#FFC473"/>
<path d="M56.2938 49.4588L54.1529 50.8174C53.6559 49.9976 52.7983 49.5078 51.8594 49.5078L51.8594 46.9297C53.6759 46.9297 55.3336 47.875 56.2938 49.4588Z" fill="#FFC473"/>
<path d="M60.0344 46.833L57.8928 48.1916C56.5858 46.0354 54.33 44.748 51.8594 44.748L51.8594 42.1699C55.2086 42.1699 58.2638 43.9135 60.0344 46.833Z" fill="#FFC473"/>
</g>
<defs>
<clipPath id="clip0">
<rect width="43" height="44" fill="white" transform="translate(32 19.998)"/>
</clipPath>
</defs>
</svg>
