<svg width="142" height="28" viewBox="0 0 142 28" fill="none" xmlns="http://www.w3.org/2000/svg">
<path fill-rule="evenodd" clip-rule="evenodd" d="M0 0H4.38253V2.95741H8.75647V9.52942H13.1304V11.9391H17.4957H17.5043H21.8696V9.41987H26.2436V2.95741H30.6176V0H35V10.4604H30.6262V12.8759H27.9336C27.4495 12.8759 27.0366 12.9848 26.6949 13.2028C26.3675 13.4207 26.1468 13.6615 26.0329 13.9253L22.7213 20.8661H21.8782V22.633L19.7946 27H17.5043H17.4957H15.2445L13.1218 22.577V20.9757H12.3532L8.96949 13.9253C8.81288 13.6156 8.57797 13.3633 8.26475 13.1684C7.95153 12.9734 7.54576 12.8759 7.04746 12.8759H4.37396V10.4604H0V0ZM4.37396 16.7442V16.7586H4.3812L4.37396 16.7442ZM30.4289 17.142H30.6262V16.7488L30.4289 17.142Z" fill="#F7931A"/>
<path d="M89.9935 16.6533V14.934C89.6551 14.878 89.3242 14.8501 89.0005 14.8501C88.0885 14.8501 87.4487 15.1017 87.0809 15.6049C86.7279 16.1082 86.5514 16.905 86.5514 17.9953C86.5514 19.0856 86.7352 19.8964 87.103 20.4276C87.4854 20.9448 88.1474 21.2034 89.0888 21.2034C90.0302 21.2034 90.9937 21.0776 91.9793 20.826L92.3102 22.8389C91.2806 23.1185 90.1773 23.2583 89.0005 23.2583C85.735 23.2583 84.1022 21.5109 84.1022 18.0163C84.1022 16.213 84.4699 14.899 85.2054 14.0743C85.9556 13.2355 87.1986 12.8162 88.9343 12.8162C90.0523 12.8162 91.1261 12.949 92.1558 13.2146V16.6533H89.9935ZM93.9651 22.9857V21.0566H96.1054V14.9549H93.9651V13.0259H98.378L98.4222 14.0323C99.5401 13.4312 100.82 13.0538 102.261 12.9H102.857V14.9969H102.261C100.643 15.1366 99.3636 15.4582 98.4222 15.9614V21.0986H101.71V22.9857H93.9651ZM103.298 13.0259H105.704L107.998 20.155H108.175L110.359 13.0259H112.742L108.837 24.6841C108.469 25.7745 107.998 26.4734 107.425 26.7809C106.866 27.1024 105.851 27.2772 104.38 27.3051V25.3761C105.086 25.3481 105.615 25.2503 105.968 25.0825C106.336 24.9287 106.579 24.6632 106.696 24.2857L106.939 23.5518L103.298 13.0259ZM113.514 27.0116V14.8291L113.382 13.0259L115.589 12.8791L115.721 13.8017C116.706 13.1726 117.582 12.8581 118.347 12.8581C119.832 12.8581 120.921 13.2775 121.612 14.1162C122.318 14.941 122.671 16.234 122.671 17.9953C122.671 19.7566 122.245 21.0706 121.392 21.9373C120.538 22.79 119.325 23.2164 117.751 23.2164C117.221 23.2164 116.567 23.0696 115.787 22.776V27.0116H113.514ZM118.258 14.8711C117.582 14.8711 116.758 15.1786 115.787 15.7937V20.7841C116.493 21.0776 117.133 21.2244 117.707 21.2244C119.384 21.2244 120.222 20.162 120.222 18.0372C120.222 15.9125 119.568 14.8571 118.258 14.8711ZM123.377 14.9549V13.0259H125.165V10.6355L127.437 10.4258V13.0259H131.563V14.9549H127.437V19.1485C127.437 19.9174 127.518 20.4625 127.68 20.7841C127.842 21.0916 128.173 21.2454 128.673 21.2454C129.541 21.2454 130.556 21.1126 131.718 20.847L132.093 22.7131C130.813 23.0346 129.673 23.1954 128.673 23.1954C127.261 23.1954 126.319 22.8948 125.849 22.2938C125.393 21.6927 125.165 20.6443 125.165 19.1485V14.9549H123.377ZM133.946 14.1372C134.697 13.2845 135.851 12.8581 137.411 12.8581C138.97 12.8581 140.124 13.2845 140.875 14.1372C141.625 14.9759 142 16.2759 142 18.0372C142 19.7986 141.625 21.1126 140.875 21.9792C140.124 22.8319 138.97 23.2583 137.411 23.2583C135.851 23.2583 134.697 22.8319 133.946 21.9792C133.196 21.1126 132.821 19.7986 132.821 18.0372C132.821 16.2759 133.196 14.9759 133.946 14.1372ZM135.712 15.6259C135.417 16.1152 135.27 16.9189 135.27 18.0372C135.27 19.1555 135.425 19.9663 135.734 20.4695C136.043 20.9728 136.601 21.2244 137.411 21.2244C138.22 21.2244 138.779 20.9728 139.087 20.4695C139.396 19.9663 139.551 19.1555 139.551 18.0372C139.551 16.9189 139.396 16.1152 139.087 15.6259C138.793 15.1367 138.234 14.892 137.411 14.892C136.587 14.892 136.02 15.1367 135.712 15.6259Z" fill="#F7931A"/>
<path d="M32 13.0259H34.4051L36.4791 21.0567H37.2955L39.2593 13.0259H41.6864L39.0166 22.9857H34.7802L32 13.0259ZM42.216 18.0163C42.216 16.3249 42.6131 15.0458 43.4075 14.1791C44.2018 13.2985 45.305 12.8581 46.7172 12.8581C48.1293 12.8581 49.2178 13.2565 49.9827 14.0533C50.7624 14.8361 51.1669 15.9894 51.1963 17.5131L51.108 19.0647H44.6651C44.7975 20.5744 45.5919 21.3293 47.0481 21.3293C48.0631 21.3293 49.1369 21.1545 50.2696 20.8051L50.7329 22.6293C50.2622 22.783 49.6518 22.9159 48.9016 23.0277C48.1514 23.1535 47.5336 23.2164 47.0481 23.2164C43.8267 23.2164 42.216 21.483 42.216 18.0163ZM46.8054 14.8082C46.1141 14.8082 45.5919 15.0039 45.2388 15.3953C44.9005 15.7727 44.7093 16.4087 44.6651 17.3034H48.7471C48.7471 15.6399 48.0999 14.8082 46.8054 14.8082ZM52.2995 22.9857V21.0567H54.4398V14.9549H52.2995V13.0259H56.7125L56.7566 14.0324C57.8746 13.4313 59.1543 13.0538 60.5959 12.9001H61.1916V14.9969H60.5959C58.9778 15.1367 57.698 15.4582 56.7566 15.9614V21.0986H60.0443V22.9857H52.2995ZM70.8339 9V21.2454L71.0546 22.9857L68.826 23.1954L68.6274 22.2309C67.6713 22.8879 66.7372 23.2164 65.8252 23.2164C64.4572 23.2164 63.4275 22.839 62.7362 22.0841C62.0448 21.3153 61.6991 20.0222 61.6991 18.205C61.6991 16.3878 62.1183 15.0458 62.9568 14.1791C63.7953 13.2985 64.8838 12.8581 66.2224 12.8581C67.002 12.8581 67.789 13.0189 68.5833 13.3404V9H70.8339ZM65.9797 21.2035C66.7593 21.2035 67.6272 20.826 68.5833 20.0712V15.3953C67.8184 15.0458 67.0682 14.8711 66.3327 14.8711C64.8764 14.8711 64.1483 15.9824 64.1483 18.205C64.1483 20.204 64.7587 21.2035 65.9797 21.2035ZM71.6724 18.0163C71.6724 16.3249 72.0695 15.0458 72.8639 14.1791C73.6582 13.2985 74.7614 12.8581 76.1736 12.8581C77.5857 12.8581 78.6742 13.2565 79.4391 14.0533C80.2188 14.8361 80.6233 15.9894 80.6527 17.5131L80.5644 19.0647H74.1215C74.2539 20.5744 75.0483 21.3293 76.5045 21.3293C77.5195 21.3293 78.5933 21.1545 79.726 20.8051L80.1893 22.6293C79.7186 22.783 79.1082 22.9159 78.358 23.0277C77.6078 23.1535 76.99 23.2164 76.5045 23.2164C73.2831 23.2164 71.6724 21.483 71.6724 18.0163ZM76.2618 14.8082C75.5705 14.8082 75.0483 15.0039 74.6952 15.3953C74.3569 15.7727 74.1657 16.4087 74.1215 17.3034H78.2035C78.2035 15.6399 77.5563 14.8082 76.2618 14.8082Z" fill="#F7931A"/>
</svg>
