<svg width="104" height="85" viewBox="0 0 104 85" fill="none" xmlns="http://www.w3.org/2000/svg">
<path fill-rule="evenodd" clip-rule="evenodd" d="M0.929827 46.0014L28.5075 83.5752L74.6099 82.598L102.907 43.8399L72.8722 0.61638L26.7697 1.59359L0.929827 46.0014ZM82.1396 40.0494C81.7776 22.9694 67.7236 9.41502 50.7491 9.77482C33.7747 10.1346 20.3076 24.2723 20.6697 41.3523C21.0317 58.4323 35.0857 71.9866 52.0602 71.6269C69.0346 71.2671 82.5016 57.1293 82.1396 40.0494Z" fill="#98D8DA"/>
<g clip-path="url(#clip0)">
<path d="M47.0664 55.9746H56.9327V61.43H47.0664V55.9746Z" fill="#2C6A9B"/>
<path d="M47.0674 55.9746H56.933V57.6725H47.0674V55.9746Z" fill="#1A5A84"/>
<path d="M61.5914 62.7743H42.4088C41.9064 62.7743 41.499 62.3669 41.499 61.8645C41.499 61.3621 41.9064 60.9551 42.4088 60.9551H61.5914C62.0938 60.9551 62.5008 61.3621 62.5008 61.8645C62.5008 62.3669 62.0938 62.7743 61.5914 62.7743Z" fill="#DCEEEF"/>
<path d="M77 22.8361V55.2378C77 55.805 76.5403 56.2639 75.9727 56.2639H28.0273C27.4597 56.2639 27 55.805 27 55.2378V22.8361C27 21.9862 27.6901 21.2969 28.5404 21.2969H75.4596C76.3107 21.2969 77 21.9862 77 22.8361Z" fill="#DCEEEF"/>
<path d="M77.0004 22.8357V55.237C77.0004 55.805 76.5408 56.2635 75.9739 56.2635H73.74C74.3069 56.2635 74.7666 55.805 74.7666 55.237V22.8357C74.7666 21.9862 74.0772 21.2969 73.2266 21.2969H75.4604C76.3111 21.2969 77.0004 21.9862 77.0004 22.8357Z" fill="#BCDDE2"/>
<path d="M54.5703 28.8965H77V42.0362H54.5703V28.8965Z" fill="#3BC3FF"/>
<path d="M74.7656 28.8965H76.9995V42.0362H74.7656V28.8965Z" fill="#009AF2"/>
<path d="M71.1467 36.0578C71.3359 36.3176 71.3893 36.6521 71.2909 36.958L69.9054 41.2568L69.654 42.0346H58.0634L58.9149 39.7798C58.9408 39.7119 58.9736 39.6466 59.0133 39.5856L59.4699 38.886C59.7682 38.4286 59.6469 37.8171 59.1972 37.5077L56.5276 35.6713C56.3934 35.579 56.2381 35.5207 56.076 35.5012L54.5703 35.3234V28.8945H70.4848L69.3584 31.0247C69.1955 31.3321 68.8853 31.5339 68.5378 31.558L63.6737 31.8921C63.4689 31.9062 63.2732 31.9829 63.1129 32.1115L61.3403 33.5351C60.9851 33.8201 60.8657 34.308 61.0492 34.7249L61.5024 35.7541C61.6878 36.1756 62.1364 36.4175 62.5903 36.3408L69.781 35.1281C70.1572 35.0644 70.5371 35.2197 70.7618 35.5283L71.1467 36.0578Z" fill="#8DFFA2"/>
<path d="M54.5703 21.2969V56.2639H28.0273C27.4597 56.2639 27 55.805 27 55.2378V22.8361C27 21.9862 27.6901 21.2969 28.5404 21.2969L54.5703 21.2969Z" fill="#4C94C3"/>
<path d="M77 22.8361V25.0334H27V22.8361C27 21.9862 27.6901 21.2969 28.5404 21.2969H75.4596C76.3107 21.2969 77 21.9862 77 22.8361Z" fill="#8BC1C6"/>
<path d="M77 51.3398V55.2366C77 55.8046 76.5403 56.2631 75.9735 56.2631H28.0265C27.4597 56.2631 27 55.8046 27 55.2366V51.3398H77Z" fill="#3B7CA8"/>
<path d="M76.9997 51.3398V55.2366C76.9997 55.8046 76.54 56.2631 75.9731 56.2631H73.7393C74.3061 56.2631 74.7658 55.8046 74.7658 55.2366V51.3398H76.9997Z" fill="#2C6A9B"/>
<path d="M31.8355 30.2825H31.7893C31.3728 30.2825 31.0352 29.9445 31.0352 29.528C31.0352 29.1114 31.3728 28.7734 31.7893 28.7734H31.8355C32.2524 28.7734 32.59 29.1114 32.59 29.528C32.59 29.9445 32.2524 30.2825 31.8355 30.2825Z" fill="#FF8980"/>
<path d="M37.0098 30.2825H34.1926C33.7761 30.2825 33.4385 29.9445 33.4385 29.528C33.4385 29.1114 33.7761 28.7734 34.1926 28.7734H37.0098C37.4264 28.7734 37.7643 29.1114 37.7643 29.528C37.7643 29.9445 37.4264 30.2825 37.0098 30.2825Z" fill="#FF8980"/>
<path d="M31.8355 32.7708H31.7893C31.3728 32.7708 31.0352 32.4332 31.0352 32.0163C31.0352 31.5997 31.3728 31.2617 31.7893 31.2617H31.8355C32.2524 31.2617 32.59 31.5997 32.59 32.0163C32.59 32.4332 32.2524 32.7708 31.8355 32.7708Z" fill="#8DFFA2"/>
<path d="M40.4982 32.7708H34.1936C33.7771 32.7708 33.4395 32.4332 33.4395 32.0163C33.4395 31.5997 33.7771 31.2617 34.1936 31.2617H40.4982C40.9151 31.2617 41.2527 31.5997 41.2527 32.0163C41.2527 32.4332 40.9151 32.7708 40.4982 32.7708Z" fill="#8DFFA2"/>
<path d="M31.8355 35.2591H31.7893C31.3728 35.2591 31.0352 34.9211 31.0352 34.5045C31.0352 34.0876 31.3728 33.75 31.7893 33.75H31.8355C32.2524 33.75 32.59 34.0876 32.59 34.5045C32.59 34.9211 32.2524 35.2591 31.8355 35.2591Z" fill="#8DFFA2"/>
<path d="M38.7545 35.2591H34.1936C33.7771 35.2591 33.4395 34.9211 33.4395 34.5045C33.4395 34.0876 33.7771 33.75 34.1936 33.75H38.7545C39.1714 33.75 39.509 34.0876 39.509 34.5045C39.509 34.9211 39.1714 35.2591 38.7545 35.2591Z" fill="#8DFFA2"/>
<path d="M31.8355 37.7474H31.7893C31.3728 37.7474 31.0352 37.4094 31.0352 36.9928C31.0352 36.5763 31.3728 36.2383 31.7893 36.2383H31.8355C32.2524 36.2383 32.59 36.5763 32.59 36.9928C32.59 37.4094 32.2524 37.7474 31.8355 37.7474Z" fill="#8DFFA2"/>
<path d="M45.7291 37.7474H38.4186C38.0017 37.7474 37.6641 37.4094 37.6641 36.9928C37.6641 36.5763 38.002 36.2383 38.4186 36.2383H45.7291C46.146 36.2383 46.4836 36.5763 46.4836 36.9928C46.4836 37.4094 46.146 37.7474 45.7291 37.7474Z" fill="#8DFFA2"/>
<path d="M36.3401 37.7474H34.1936C33.7771 37.7474 33.4395 37.4094 33.4395 36.9928C33.4395 36.5763 33.7771 36.2383 34.1936 36.2383H36.3401C36.7567 36.2383 37.0943 36.5763 37.0943 36.9928C37.0943 37.4094 36.7567 37.7474 36.3401 37.7474Z" fill="#8DFFA2"/>
<path d="M31.8355 40.2357H31.7893C31.3728 40.2357 31.0352 39.8981 31.0352 39.4811C31.0352 39.0645 31.3728 38.7266 31.7893 38.7266H31.8355C32.2524 38.7266 32.59 39.0645 32.59 39.4811C32.59 39.8981 32.2524 40.2357 31.8355 40.2357Z" fill="#8DF4FF"/>
<path d="M40.4972 40.2357H34.1926C33.7761 40.2357 33.4385 39.8981 33.4385 39.4811C33.4385 39.0645 33.7761 38.7266 34.1926 38.7266H40.4972C40.9141 38.7266 41.2517 39.0645 41.2517 39.4811C41.2517 39.8981 40.9141 40.2357 40.4972 40.2357Z" fill="#8DF4FF"/>
<path d="M31.8355 42.7236H31.7893C31.3728 42.7236 31.0352 42.386 31.0352 41.9694C31.0352 41.5524 31.3728 41.2148 31.7893 41.2148H31.8355C32.2524 41.2148 32.59 41.5524 32.59 41.9694C32.59 42.386 32.2524 42.7236 31.8355 42.7236Z" fill="#8DF4FF"/>
<path d="M40.4972 42.7236H34.1926C33.7761 42.7236 33.4385 42.386 33.4385 41.9694C33.4385 41.5524 33.7761 41.2148 34.1926 41.2148H40.4972C40.9141 41.2148 41.2517 41.5524 41.2517 41.9694C41.2517 42.386 40.9141 42.7236 40.4972 42.7236Z" fill="#8DF4FF"/>
<path d="M31.8355 45.2122H31.7893C31.3728 45.2122 31.0352 44.8742 31.0352 44.4577C31.0352 44.0411 31.3728 43.7031 31.7893 43.7031H31.8355C32.2524 43.7031 32.59 44.0411 32.59 44.4577C32.59 44.8742 32.2524 45.2122 31.8355 45.2122Z" fill="#FF8980"/>
<path d="M46.2892 45.2122H43.8512C43.4343 45.2122 43.0967 44.8742 43.0967 44.4577C43.0967 44.0411 43.4347 43.7031 43.8512 43.7031H46.2892C46.7061 43.7031 47.0437 44.0411 47.0437 44.4577C47.0437 44.8742 46.7061 45.2122 46.2892 45.2122Z" fill="#FF8980"/>
<path d="M41.6374 45.2122H34.1926C33.7761 45.2122 33.4385 44.8742 33.4385 44.4577C33.4385 44.0411 33.7761 43.7031 34.1926 43.7031H41.6374C42.0544 43.7031 42.392 44.0411 42.392 44.4577C42.392 44.8742 42.0544 45.2122 41.6374 45.2122Z" fill="#FF8980"/>
<path d="M31.8355 47.7001H31.7893C31.3728 47.7001 31.0352 47.3625 31.0352 46.9456C31.0352 46.529 31.3728 46.1914 31.7893 46.1914H31.8355C32.2524 46.1914 32.59 46.529 32.59 46.9456C32.59 47.3625 32.2524 47.7001 31.8355 47.7001Z" fill="#FF8980"/>
<path d="M40.4972 47.7001H34.1926C33.7761 47.7001 33.4385 47.3625 33.4385 46.9456C33.4385 46.529 33.7761 46.1914 34.1926 46.1914H40.4972C40.9141 46.1914 41.2517 46.529 41.2517 46.9456C41.2517 47.3625 40.9141 47.7001 40.4972 47.7001Z" fill="#FF8980"/>
<path d="M42.9019 47.7001H42.8557C42.4392 47.7001 42.1016 47.3625 42.1016 46.9456C42.1016 46.529 42.4392 46.1914 42.8557 46.1914H42.9019C43.3188 46.1914 43.6564 46.529 43.6564 46.9456C43.6564 47.3625 43.3188 47.7001 42.9019 47.7001Z" fill="#FF8980"/>
<path d="M39.4032 30.2825H39.3571C38.9405 30.2825 38.6025 29.9445 38.6025 29.528C38.6025 29.1114 38.9405 28.7734 39.3571 28.7734H39.4032C39.8202 28.7734 40.1578 29.1114 40.1578 29.528C40.1578 29.9445 39.8202 30.2825 39.4032 30.2825Z" fill="#FF8980"/>
<path d="M40.8081 35.2591H40.7624C40.3454 35.2591 40.0078 34.9211 40.0078 34.5045C40.0078 34.0876 40.3454 33.75 40.7624 33.75H40.8081C41.2251 33.75 41.5627 34.0876 41.5627 34.5045C41.5627 34.9211 41.2251 35.2591 40.8081 35.2591Z" fill="#8DFFA2"/>
<path d="M44.9189 47.7001H44.8727C44.4558 47.7001 44.1182 47.3625 44.1182 46.9456C44.1182 46.529 44.4561 46.1914 44.8727 46.1914H44.9189C45.3358 46.1914 45.6734 46.529 45.6734 46.9456C45.6734 47.3625 45.3358 47.7001 44.9189 47.7001Z" fill="#FF8980"/>
<path d="M48.8779 45.2122H48.8317C48.4147 45.2122 48.0771 44.8742 48.0771 44.4577C48.0771 44.0411 48.4151 43.7031 48.8317 43.7031H48.8779C49.2948 43.7031 49.6324 44.0411 49.6324 44.4577C49.6324 44.8742 49.2948 45.2122 48.8779 45.2122Z" fill="#FF8980"/>
<path d="M42.8788 42.7607H42.8327C42.4157 42.7607 42.0781 42.4231 42.0781 42.0065C42.0781 41.5896 42.4161 41.252 42.8327 41.252H42.8788C43.2954 41.252 43.6334 41.5896 43.6334 42.0065C43.6334 42.4231 43.2954 42.7607 42.8788 42.7607Z" fill="#8DF4FF"/>
<path d="M42.8788 40.2357H42.8327C42.4157 40.2357 42.0781 39.8981 42.0781 39.4811C42.0781 39.0645 42.4161 38.7266 42.8327 38.7266H42.8788C43.2954 38.7266 43.6334 39.0645 43.6334 39.4811C43.6334 39.8981 43.2954 40.2357 42.8788 40.2357Z" fill="#8DF4FF"/>
<path d="M44.9189 42.7607H44.8727C44.4558 42.7607 44.1182 42.4231 44.1182 42.0065C44.1182 41.5896 44.4561 41.252 44.8727 41.252H44.9189C45.3358 41.252 45.6734 41.5896 45.6734 42.0065C45.6734 42.4231 45.3358 42.7607 44.9189 42.7607Z" fill="#8DF4FF"/>
<path d="M46.9579 42.7607H46.9118C46.4952 42.7607 46.1572 42.4231 46.1572 42.0065C46.1572 41.5896 46.4952 41.252 46.9118 41.252H46.9579C47.3749 41.252 47.7125 41.5896 47.7125 42.0065C47.7125 42.4231 47.3749 42.7607 46.9579 42.7607Z" fill="#8DF4FF"/>
<path d="M48.998 42.7607H48.9518C48.5349 42.7607 48.1973 42.4231 48.1973 42.0065C48.1973 41.5896 48.5349 41.252 48.9518 41.252H48.998C49.4145 41.252 49.7521 41.5896 49.7521 42.0065C49.7521 42.4231 49.4145 42.7607 48.998 42.7607Z" fill="#8DF4FF"/>
<path d="M74.3035 45.2122H60.1227C59.7058 45.2122 59.3682 44.8742 59.3682 44.4577C59.3682 44.0411 59.7061 43.7031 60.1227 43.7031H74.3035C74.72 43.7031 75.0576 44.0411 75.0576 44.4577C75.058 44.8742 74.72 45.2122 74.3035 45.2122Z" fill="#4C94C3"/>
<path d="M57.9924 45.2122H57.2669C56.8503 45.2122 56.5127 44.8742 56.5127 44.4577C56.5127 44.0411 56.8503 43.7031 57.2669 43.7031H57.9924C58.4094 43.7031 58.747 44.0411 58.747 44.4577C58.7473 44.8742 58.4094 45.2122 57.9924 45.2122Z" fill="#4C94C3"/>
<path d="M71.4476 49.263H57.2672C56.8503 49.263 56.5127 48.9254 56.5127 48.5085C56.5127 48.0919 56.8503 47.7539 57.2672 47.7539H71.4476C71.8646 47.7539 72.2022 48.0919 72.2022 48.5085C72.2022 48.925 71.8642 49.263 71.4476 49.263Z" fill="#4C94C3"/>
<path d="M74.3033 49.263H73.5774C73.1608 49.263 72.8232 48.9254 72.8232 48.5085C72.8232 48.0919 73.1608 47.7539 73.5774 47.7539H74.3033C74.7199 47.7539 75.0575 48.0919 75.0575 48.5085C75.0579 48.925 74.7199 49.263 74.3033 49.263Z" fill="#4C94C3"/>
<path d="M74.3033 47.2376H57.2669C56.8503 47.2376 56.5127 46.8996 56.5127 46.4831C56.5127 46.0665 56.8503 45.7285 57.2669 45.7285H74.3033C74.7199 45.7285 75.0575 46.0665 75.0575 46.4831C75.0578 46.8996 74.7199 47.2376 74.3033 47.2376Z" fill="#4C94C3"/>
<path d="M50.5352 57.0078H53.4648V63.2369H50.5352V57.0078Z" fill="#87A0AF"/>
<path d="M51.9996 21.2969L50.0449 29.4807L76.9996 27.526V21.2969H51.9996Z" fill="#E50058"/>
<path d="M52 21.2969H27V27.526L52 29.4807V21.2969Z" fill="#FF6C6C"/>
<path d="M51.9996 58.8402H76.9996V27.5273H51.9996L50.0449 43.1838L51.9996 58.8402Z" fill="#E1EBF0"/>
<path d="M27 27.5273H52V58.8402H27V27.5273Z" fill="#FFF5F5"/>
<path d="M56.5804 64.7031H51.9998L51.0225 63.2383L51.9998 61.7734H56.5804V64.7031Z" fill="#87A0AF"/>
<path d="M47.4199 61.7734H52.0005V64.7031H47.4199V61.7734Z" fill="#B4D2D7"/>
<path d="M38.8604 45.6035L48.2274 38.4308L50.0086 40.757L40.6416 47.9297L38.8604 45.6035Z" fill="#09607D"/>
<path d="M55.2881 39.5488L55.8799 36.6777L63.9019 38.3313L63.3101 41.2023L55.2881 39.5488Z" fill="#07485E"/>
<path d="M51.9996 32.291L50.0449 37.3895L51.9996 42.488C54.8109 42.488 57.0981 40.2009 57.0981 37.3896C57.0981 34.5782 54.8109 32.291 51.9996 32.291Z" fill="#00AA95"/>
<path d="M46.9014 37.3896C46.9014 40.2009 49.1885 42.488 51.9998 42.488V32.291C49.1885 32.291 46.9014 34.5782 46.9014 37.3896Z" fill="#00DD80"/>
<path d="M36.8621 54.0758C39.6779 54.0758 41.9605 51.7931 41.9605 48.9773C41.9605 46.1616 39.6779 43.8789 36.8621 43.8789C34.0463 43.8789 31.7637 46.1616 31.7637 48.9773C31.7637 51.7931 34.0463 54.0758 36.8621 54.0758Z" fill="#00DD80"/>
<path d="M67.1375 45.6031C69.9533 45.6031 72.2359 43.3205 72.2359 40.5047C72.2359 37.6889 69.9533 35.4062 67.1375 35.4062C64.3217 35.4062 62.0391 37.6889 62.0391 40.5047C62.0391 43.3205 64.3217 45.6031 67.1375 45.6031Z" fill="#00AA95"/>
<g clip-path="url(#clip1)">
<path d="M62 21.4102C68.5862 21.4102 74.0605 25.4726 76.6211 28.0748C77.1263 28.5884 77.1263 29.4098 76.6211 29.9233C74.0605 32.5256 68.5862 36.588 62 36.588C55.4138 36.588 49.9395 32.5256 47.3789 29.9234C46.8737 29.4098 46.8737 28.5884 47.3789 28.0749C49.9395 25.4726 55.4138 21.4102 62 21.4102Z" fill="#D1EFF2"/>
<path d="M62.0002 36.5883C66.1915 36.5883 69.5892 33.1905 69.5892 28.9992C69.5892 24.8079 66.1915 21.4102 62.0002 21.4102C57.8089 21.4102 54.4111 24.8079 54.4111 28.9992C54.4111 33.1905 57.8089 36.5883 62.0002 36.5883Z" fill="#76B7EB"/>
<path opacity="0.1" d="M58.0737 22.5039C55.8783 23.8338 54.4111 26.2452 54.4111 28.9993C54.4111 33.1906 57.8088 36.5883 62.0001 36.5883C63.8104 36.5883 65.4723 35.954 66.7767 34.8961C55.2412 37.6966 54.4111 26.6284 58.0737 22.5039Z" fill="black"/>
<path d="M62 32.7188C64.0533 32.7188 65.7178 31.0542 65.7178 29.001C65.7178 26.9477 64.0533 25.2832 62 25.2832C59.9467 25.2832 58.2822 26.9477 58.2822 29.001C58.2822 31.0542 59.9467 32.7188 62 32.7188Z" fill="#38648C"/>
<path d="M65.6443 28.7672C66.6139 28.7672 67.4 27.9811 67.4 27.0115C67.4 26.0419 66.6139 25.2559 65.6443 25.2559C64.6747 25.2559 63.8887 26.0419 63.8887 27.0115C63.8887 27.9811 64.6747 28.7672 65.6443 28.7672Z" fill="white"/>
<path opacity="0.15" d="M47.6465 27.8086C50.1936 26.2358 55.8811 22.9632 62.0003 22.9632C68.1195 22.9632 73.807 26.2358 76.3541 27.8086C73.6928 25.205 68.366 21.4102 62.0003 21.4102C55.6346 21.4102 50.3079 25.205 47.6465 27.8086Z" fill="black"/>
<g opacity="0.1">
<path opacity="0.1" d="M66.6718 33.239C66.5743 33.239 66.4763 33.2068 66.3948 33.1405L65.8585 32.7042C65.6701 32.5511 65.6417 32.2743 65.7948 32.086C65.9479 31.8977 66.2248 31.8692 66.413 32.0224L66.9493 32.4586C67.1377 32.6118 67.1661 32.8885 67.013 33.0768C66.9261 33.1837 66.7995 33.239 66.6718 33.239Z" fill="black"/>
<path opacity="0.1" d="M67.7602 31.1959C67.7177 31.1959 67.6746 31.1897 67.6318 31.1767L66.9706 30.9751C66.7384 30.9043 66.6076 30.6587 66.6784 30.4266C66.7492 30.1944 66.9946 30.0638 67.2269 30.1344L67.8882 30.336C68.1203 30.4068 68.2511 30.6524 68.1803 30.8845C68.1226 31.074 67.9484 31.1959 67.7602 31.1959Z" fill="black"/>
<path opacity="0.1" d="M61.4458 35.4345C61.4323 35.4345 61.4186 35.4339 61.4049 35.4326C61.1632 35.4103 60.9854 35.1963 61.0078 34.9546L61.0714 34.2661C61.0937 34.0244 61.3078 33.8473 61.5494 33.869C61.791 33.8913 61.9689 34.1054 61.9465 34.3471L61.8829 35.0355C61.8618 35.2634 61.6702 35.4345 61.4458 35.4345Z" fill="black"/>
<path opacity="0.1" d="M56.1668 30.9355C55.9709 30.9355 55.7923 30.8036 55.7414 30.6051C55.6811 30.37 55.8229 30.1305 56.0579 30.0703L56.7277 29.8986C56.963 29.8384 57.2023 29.9801 57.2625 30.2152C57.3227 30.4503 57.181 30.6897 56.9459 30.75L56.2762 30.9217C56.2396 30.931 56.203 30.9355 56.1668 30.9355Z" fill="black"/>
<path opacity="0.1" d="M59.1616 24.9271C59.0156 24.9271 58.8727 24.8544 58.7893 24.7216L58.4211 24.1364C58.2918 23.9311 58.3536 23.6597 58.559 23.5305C58.7643 23.4012 59.0358 23.4629 59.165 23.6684L59.5332 24.2536C59.6624 24.4589 59.6007 24.7303 59.3953 24.8595C59.3225 24.9053 59.2416 24.9271 59.1616 24.9271Z" fill="black"/>
<path opacity="0.1" d="M64.4675 24.7145C64.3989 24.7145 64.3294 24.6984 64.2644 24.6644C64.0493 24.552 63.966 24.2866 64.0784 24.0715L64.3984 23.4587C64.5108 23.2435 64.7764 23.1604 64.9914 23.2726C65.2065 23.385 65.2898 23.6505 65.1775 23.8656L64.8574 24.4784C64.779 24.6285 64.6259 24.7145 64.4675 24.7145Z" fill="black"/>
</g>
</g>
</g>
<defs>
<clipPath id="clip0">
<rect width="50" height="50" fill="white" transform="translate(27 17)"/>
</clipPath>
<clipPath id="clip1">
<rect width="30" height="30" fill="white" transform="translate(47 14)"/>
</clipPath>
</defs>
</svg>
