<svg width="104" height="85" viewBox="0 0 104 85" fill="none" xmlns="http://www.w3.org/2000/svg">
<path fill-rule="evenodd" clip-rule="evenodd" d="M0.929827 46.8549L28.5075 84.4287L74.6099 83.4515L102.907 44.6934L72.8722 1.4699L26.7697 2.4471L0.929827 46.8549ZM82.1396 40.9029C81.7776 23.8229 67.7236 10.2685 50.7491 10.6283C33.7747 10.9881 20.3076 25.1259 20.6697 42.2058C21.0317 59.2858 35.0857 72.8402 52.0602 72.4804C69.0346 72.1206 82.5016 57.9828 82.1396 40.9029Z" fill="#98D8DA"/>
<g clip-path="url(#clip0)">
<path d="M52 68.0005C45.5574 68.0005 39.4799 67.1411 34.8869 65.5807C28.3684 63.366 27 60.5293 27 58.5396C27 55.944 29.3192 54.1251 31.2647 53.0564C31.974 52.6668 32.8644 52.9259 33.2539 53.6349C33.6435 54.3439 33.3845 55.2346 32.6754 55.624C30.9305 56.5826 29.9297 57.6453 29.9297 58.5396C29.9297 59.6335 31.4795 61.3288 35.8294 62.8066C40.1268 64.2668 45.8696 65.0708 52 65.0708C58.1304 65.0708 63.8732 64.2668 68.1706 62.8066C72.5205 61.3289 74.0703 59.6335 74.0703 58.5396C74.0703 57.6453 73.0695 56.5826 71.3246 55.6239C70.6155 55.2345 70.3565 54.3438 70.7461 53.6348C71.1354 52.9258 72.026 52.6667 72.7353 53.0563C74.6808 54.1251 77 55.944 77 58.5396C77 60.5293 75.6316 63.366 69.1131 65.5807C64.5201 67.1411 58.4426 68.0005 52 68.0005Z" fill="#C9DFF7"/>
<path d="M72.7356 53.0563C72.0263 52.6667 71.1358 52.9258 70.7465 53.6348C70.3569 54.3439 70.6159 55.2345 71.325 55.6239C73.0699 56.5825 74.0707 57.6452 74.0707 58.5396C74.0707 59.6334 72.5209 61.3287 68.171 62.8066C63.8736 64.2667 58.1308 65.0707 52.0004 65.0707C52.0003 65.0707 52.0001 65.0707 52 65.0707L52 68.0004C52.0001 68.0004 52.0003 68.0004 52.0004 68.0004C58.443 68.0004 64.5205 67.1411 69.1134 65.5806C75.632 63.366 77.0003 60.5292 77.0003 58.5396C77.0003 55.944 74.6811 54.125 72.7356 53.0563Z" fill="#AECEF2"/>
<path d="M51.999 61.9931C47.8409 61.9931 43.9133 61.5305 40.9396 60.6903C37.3017 59.6627 35.457 58.175 35.457 56.2689C35.457 54.3628 37.3017 52.8753 40.9396 51.8477C43.9133 51.0075 47.8409 50.5449 51.999 50.5449C56.1571 50.5449 60.0848 51.0075 63.0584 51.8477C66.6964 52.8753 68.541 54.3629 68.541 56.2689C68.541 58.175 66.6964 59.6627 63.0584 60.6903C60.0848 61.5304 56.1571 61.9931 51.999 61.9931ZM38.4115 56.2688C38.6126 56.5641 39.5906 57.3317 42.268 58.0136C44.9255 58.6905 48.3814 59.0633 51.9989 59.0633C55.6164 59.0633 59.0725 58.6905 61.73 58.0136C64.4073 57.3317 65.3854 56.564 65.5864 56.2688C65.3853 55.9737 64.4072 55.2061 61.7299 54.5241C59.0724 53.8473 55.6165 53.4745 51.9989 53.4745C48.3813 53.4745 44.9255 53.8473 42.268 54.5241C39.5907 55.2062 38.6127 55.9737 38.4115 56.2688ZM65.6199 56.3295L65.621 56.3295L65.6199 56.3295Z" fill="#C9DFF7"/>
<path d="M63.0588 51.8457C60.0852 51.0056 56.1575 50.543 51.9994 50.543C51.9993 50.543 51.9991 50.543 51.999 50.543L51.999 53.4727C51.9991 53.4727 51.9993 53.4727 51.9994 53.4727C55.617 53.4727 59.0728 53.8454 61.7304 54.5223C64.4077 55.2042 65.3858 55.9719 65.5869 56.267C65.3857 56.5622 64.4078 57.3299 61.7305 58.0117C59.0729 58.6887 55.617 59.0614 51.9994 59.0614C51.9993 59.0614 51.9991 59.0614 51.999 59.0614L51.999 61.9911C51.9991 61.9911 51.9993 61.9911 51.9994 61.9911C56.1575 61.9911 60.0852 61.5285 63.0588 60.6884C66.6968 59.6607 68.5414 58.173 68.5414 56.267C68.5414 54.3609 66.6968 52.8733 63.0588 51.8457Z" fill="#AECEF2"/>
<path d="M52.001 18C44.4924 18 38.3838 24.1086 38.3838 31.6171C38.3838 36.2939 44.0657 46.5719 48.8322 54.3704C49.5125 55.4835 50.6971 56.1479 52.001 56.1479C53.305 56.1479 54.4895 55.4834 55.1697 54.3704C59.9363 46.5719 65.6182 36.2939 65.6182 31.6171C65.6182 24.1086 59.5096 18 52.001 18ZM52.001 36.1554C48.983 36.1554 46.5276 33.7001 46.5276 30.6821C46.5276 27.6643 48.983 25.209 52.001 25.209C55.0189 25.209 57.4743 27.6643 57.4743 30.6821C57.4743 33.7002 55.0189 36.1554 52.001 36.1554Z" fill="#FE5857"/>
<path d="M52.0014 18C52.0013 18 52.0011 18 52.001 18L52.001 25.209C52.0011 25.209 52.0013 25.209 52.0014 25.209C55.0193 25.209 57.4747 27.6643 57.4747 30.6821C57.4747 33.7001 55.0193 36.1554 52.0014 36.1554C52.0013 36.1554 52.0011 36.1554 52.001 36.1554L52.001 56.1479C52.0011 56.1479 52.0013 56.1479 52.0014 56.1479C53.3054 56.1479 54.4898 55.4834 55.1701 54.3704C59.9367 46.5719 65.6186 36.2939 65.6186 31.6171C65.6186 24.1086 59.51 18 52.0014 18Z" fill="#DB0253"/>
</g>
<defs>
<clipPath id="clip0">
<rect width="50" height="50" fill="white" transform="translate(27 18)"/>
</clipPath>
</defs>
</svg>
