<svg width="104" height="85" viewBox="0 0 104 85" fill="none" xmlns="http://www.w3.org/2000/svg">
<path fill-rule="evenodd" clip-rule="evenodd" d="M0.92885 46.0014L28.5065 83.5752L74.6089 82.598L102.906 43.8399L72.8712 0.61638L26.7688 1.59359L0.92885 46.0014ZM82.1386 40.0494C81.7766 22.9694 67.7226 9.41502 50.7481 9.77482C33.7737 10.1346 20.3067 24.2723 20.6687 41.3523C21.0307 58.4323 35.0847 71.9866 52.0592 71.6269C69.0336 71.2671 82.5007 57.1293 82.1386 40.0494Z" fill="#98D8DA"/>
<g clip-path="url(#clip0)">
<g clip-path="url(#clip1)">
<path d="M77 43C77 29.1929 65.8071 18 52 18C38.1929 18 27 29.1929 27 43C27 46.5458 27.7397 49.9183 29.0709 52.9739H74.9292C76.2603 49.9183 77 46.5458 77 43Z" fill="#FCF9F7"/>
<path d="M77 43C77 40.8953 76.7399 38.8514 76.2501 36.8985L63.9668 24.6152L40.0332 44.4437L48.5635 52.9739H74.9306C76.2614 49.9185 77 46.5455 77 43V43Z" fill="#FFDDC0"/>
<path d="M63.9668 24.6152H40.0332V44.4437H47.8775L52 50.9499L56.1224 44.4437H63.9668V24.6152Z" fill="#FF583E"/>
<path d="M52.0014 24.6152L52 50.9498L56.1225 44.4437H63.9668V24.6152H52.0014Z" fill="#F92814"/>
<path d="M75.1801 52.3835C74.6072 52.5003 73.9568 52.5684 73.1977 52.5684C67.898 52.5684 67.898 49.248 62.5984 49.248C57.2991 49.248 57.2991 52.5684 51.9998 52.5684C46.7006 52.5684 46.7006 49.248 41.4015 49.248C36.1022 49.248 36.1022 52.5684 30.8029 52.5684C30.0441 52.5684 29.3939 52.5003 28.8213 52.3836C32.5321 61.5411 41.5121 68.0002 52.0007 68.0002C62.4894 68.0002 71.4693 61.5411 75.1801 52.3835V52.3835Z" fill="#7584F2"/>
<path d="M75.18 52.3835C74.6071 52.5003 73.9567 52.5684 73.1976 52.5684C67.8979 52.5684 67.8979 49.248 62.5983 49.248C57.2998 49.248 57.2989 52.5674 52.002 52.5684V68.0002C62.49 67.9997 71.4694 61.5407 75.18 52.3835V52.3835Z" fill="#6D77FE"/>
<path d="M62.598 57.2656C57.2986 57.2656 57.2986 60.5859 51.9993 60.5859C46.7001 60.5859 46.7001 57.2656 41.401 57.2656C37.3414 57.2656 36.3917 59.2142 33.7871 60.1258C38.3469 64.9732 44.82 68.0002 52.0002 68.0002C59.1802 68.0002 65.6533 64.9733 70.2131 60.1261C67.6077 59.2145 66.6582 57.2656 62.598 57.2656V57.2656Z" fill="#6D77FE"/>
<path d="M70.2134 60.1261C67.6081 59.2145 66.6586 57.2656 62.5983 57.2656C57.2998 57.2656 57.2989 60.585 52.002 60.5859V68.0002C59.1813 67.9998 65.6539 64.973 70.2134 60.1261Z" fill="#4855B7"/>
<path d="M50.5352 28.1289H53.4648V36.6275H50.5352V28.1289Z" fill="white"/>
<path d="M52.002 28.1289H53.4654V36.6275H52.002V28.1289Z" fill="#E9EDF5"/>
<path d="M50.5352 38.6387H53.4648V42.1132H50.5352V38.6387Z" fill="white"/>
<path d="M52.002 38.6387H53.4654V42.1132H52.002V38.6387Z" fill="#E9EDF5"/>
</g>
</g>
<defs>
<clipPath id="clip0">
<rect width="50" height="50" fill="white" transform="translate(26.999 17)"/>
</clipPath>
<clipPath id="clip1">
<rect width="50" height="50" fill="white" transform="translate(27 18)"/>
</clipPath>
</defs>
</svg>
