<svg width="104" height="85" viewBox="0 0 104 85" fill="none" xmlns="http://www.w3.org/2000/svg">
<path fill-rule="evenodd" clip-rule="evenodd" d="M0.92885 46.0014L28.5065 83.5752L74.6089 82.598L102.906 43.8399L72.8712 0.61638L26.7688 1.59359L0.92885 46.0014ZM82.1386 40.0494C81.7766 22.9694 67.7226 9.41502 50.7481 9.77482C33.7737 10.1346 20.3067 24.2723 20.6687 41.3523C21.0307 58.4323 35.0847 71.9866 52.0592 71.6269C69.0336 71.2671 82.5007 57.1293 82.1386 40.0494Z" fill="#98D8DA"/>
<g clip-path="url(#clip0)">
<path d="M52 75C69.6731 75 84 60.4493 84 42.5C84 24.5507 69.6731 10 52 10C34.3269 10 20 24.5507 20 42.5C20 60.4493 34.3269 75 52 75Z" fill="#E7E7E8"/>
<path d="M83.9997 42.5C83.9997 42.4948 83.9995 42.4897 83.9995 42.4846L65.1782 23.3693C61.8681 19.8267 57.1881 17.6172 51.9997 17.6172C41.9671 17.6172 33.834 25.8774 33.834 36.0668C33.834 41.3254 36.0022 46.0679 39.478 49.4283L46.456 56.5217L51.9997 67.3828L58.778 74.267C73.195 71.1086 83.9997 58.0869 83.9997 42.5Z" fill="#BCBBC0"/>
<path d="M42.9609 49.6777L51.999 67.3847L61.037 49.6777L42.9609 49.6777Z" fill="#AF1916"/>
<path d="M61.0375 49.6758L59.3763 52.9321L52 67.3832L52 49.6758L61.0375 49.6758Z" fill="#750D09"/>
<path d="M52.0002 54.5174C62.0332 54.5174 70.1665 46.257 70.1665 36.0673C70.1665 25.8776 62.0332 17.6172 52.0002 17.6172C41.9673 17.6172 33.834 25.8776 33.834 36.0673C33.834 46.257 41.9673 54.5174 52.0002 54.5174Z" fill="#E6021F"/>
<path d="M70.1662 36.0673C70.1662 43.5893 65.7338 50.0601 59.3763 52.9317C57.1225 53.9499 54.6263 54.5161 52 54.5161L52 17.6172C62.0325 17.6172 70.1662 25.8768 70.1662 36.0673Z" fill="#AF1916"/>
<path d="M51.9998 48.9748C59.0186 48.9748 64.7085 43.196 64.7085 36.0675C64.7085 28.939 59.0186 23.1602 51.9998 23.1602C44.9809 23.1602 39.291 28.939 39.291 36.0675C39.291 43.196 44.9809 48.9748 51.9998 48.9748Z" fill="white"/>
<path d="M64.7088 36.0668C64.7088 43.1952 59.0188 48.9741 52 48.9741L52 23.1582C59.0188 23.1582 64.7088 28.9371 64.7088 36.0668Z" fill="#9BFCFF"/>
<path d="M47.0639 34.5706C47.044 34.5437 46.9743 34.4933 46.8549 34.419C46.7354 34.345 46.5863 34.2674 46.407 34.1866C46.2279 34.1057 46.0321 34.035 45.8199 33.9744C45.6075 33.9137 45.3953 33.8834 45.183 33.8834C44.5991 33.8834 44.3074 34.0822 44.3074 34.4797C44.3074 34.6009 44.3388 34.702 44.4019 34.7829C44.4648 34.8637 44.5576 34.9362 44.6805 35.0002C44.8031 35.0643 44.9574 35.1232 45.1433 35.1771C45.3289 35.2311 45.5446 35.2917 45.7901 35.359C46.1285 35.4534 46.4335 35.556 46.7056 35.6672C46.9776 35.7784 47.2081 35.9166 47.3973 36.0816C47.5863 36.2468 47.7321 36.4472 47.8351 36.683C47.9379 36.9188 47.9894 37.2018 47.9894 37.532C47.9894 37.9362 47.9148 38.2783 47.7655 38.5578C47.6163 38.8375 47.4188 39.0631 47.1734 39.235C46.9279 39.4069 46.646 39.5315 46.3275 39.6089C46.0091 39.6863 45.6806 39.7251 45.3424 39.7251C45.0836 39.7251 44.8183 39.705 44.5463 39.6645C44.2741 39.6241 44.0089 39.5652 43.7501 39.4876C43.4914 39.4103 43.2409 39.3175 42.9989 39.2097C42.7566 39.1021 42.5328 38.9773 42.3271 38.8358L43.0436 37.3906C43.0701 37.4244 43.1564 37.4884 43.3024 37.5827C43.4483 37.6771 43.629 37.7713 43.8446 37.8657C44.0601 37.9601 44.3006 38.0443 44.5661 38.1183C44.8314 38.1926 45.1 38.2295 45.3721 38.2295C45.9493 38.2295 46.2379 38.0511 46.2379 37.6939C46.2379 37.5592 46.1946 37.448 46.1085 37.3604C46.0223 37.2729 45.9029 37.1937 45.7503 37.1229C45.5976 37.052 45.4169 36.9864 45.208 36.9257C44.999 36.8651 44.7716 36.7979 44.5264 36.7236C44.2013 36.6225 43.9194 36.5131 43.6805 36.3952C43.4416 36.2774 43.2443 36.1409 43.0884 35.9859C42.9325 35.8309 42.8163 35.6522 42.7401 35.4501C42.6638 35.248 42.6258 35.0123 42.6258 34.7427C42.6258 34.3654 42.6954 34.0319 42.8348 33.7422C42.974 33.4526 43.1631 33.2083 43.402 33.0095C43.6409 32.8109 43.9178 32.6607 44.2329 32.5598C44.5479 32.4587 44.8813 32.4082 45.233 32.4082C45.4784 32.4082 45.7206 32.4319 45.9594 32.479C46.1983 32.5263 46.4271 32.587 46.646 32.661C46.865 32.7352 47.0689 32.8194 47.258 32.9136C47.4471 33.0081 47.6213 33.1024 47.7805 33.1967L47.0639 34.5706Z" fill="#AF1916"/>
<path d="M52.0398 39.7025C51.5157 39.7025 51.0381 39.5981 50.6069 39.3892C50.1756 39.1803 49.8074 38.9057 49.5024 38.5655C49.1971 38.2254 48.96 37.8363 48.7909 37.3982C48.6216 36.9603 48.5371 36.5088 48.5371 36.0439C48.5371 35.5724 48.625 35.1176 48.8009 34.6796C48.9765 34.2417 49.2221 33.8559 49.5372 33.5224C49.8522 33.1889 50.2254 32.9228 50.6567 32.724C51.0878 32.5253 51.5588 32.4258 52.0697 32.4258C52.5937 32.4258 53.0713 32.5304 53.5027 32.7391C53.9338 32.9479 54.3021 33.2242 54.6072 33.5679C54.9123 33.9115 55.1478 34.3023 55.3137 34.7403C55.4795 35.1783 55.5625 35.623 55.5625 36.0743C55.5625 36.5459 55.4745 37.0008 55.2988 37.4387C55.123 37.8768 54.8792 38.2623 54.5673 38.5958C54.2555 38.9293 53.884 39.1972 53.4528 39.3993C53.0216 39.6016 52.5507 39.7025 52.0398 39.7025ZM50.199 36.0641C50.199 36.3405 50.2387 36.6084 50.3184 36.8676C50.398 37.1271 50.5157 37.3578 50.6716 37.5599C50.8275 37.762 51.0215 37.9237 51.2537 38.045C51.4858 38.1662 51.7512 38.2269 52.0498 38.2269C52.3616 38.2269 52.6335 38.163 52.8658 38.035C53.098 37.907 53.2903 37.7403 53.4431 37.5346C53.5956 37.3292 53.7101 37.0968 53.7865 36.8373C53.8626 36.578 53.901 36.3135 53.901 36.0439C53.901 35.7677 53.8611 35.5 53.7815 35.2405C53.7018 34.9812 53.5825 34.7521 53.4232 34.5531C53.264 34.3546 53.07 34.196 52.8411 34.0782C52.6122 33.9604 52.3485 33.9014 52.05 33.9014C51.7381 33.9014 51.4678 33.9638 51.239 34.0884C51.0101 34.213 50.8176 34.3764 50.6619 34.5785C50.5059 34.7806 50.3897 35.0116 50.3136 35.2708C50.237 35.5303 50.199 35.7947 50.199 36.0641Z" fill="#AF1916"/>
<path d="M55.3138 34.7421C55.1475 34.3041 54.9125 33.9131 54.6075 33.569C54.3025 33.2263 53.9337 32.9495 53.5025 32.74C53.0712 32.5318 52.5937 32.4277 52.07 32.4277C52.0462 32.4277 52.0225 32.4277 52 32.429L52 33.9042C52.0162 33.9029 52.0325 33.9029 52.05 33.9029C52.3487 33.9029 52.6125 33.9613 52.8413 34.0794C53.07 34.1975 53.2638 34.3562 53.4225 34.5542C53.5825 34.7535 53.7013 34.9833 53.7812 35.2423C53.8612 35.5013 53.9012 35.7691 53.9012 36.0459C53.9012 36.315 53.8625 36.5791 53.7863 36.8394C53.71 37.0983 53.595 37.3307 53.4425 37.5363C53.29 37.742 53.0975 37.9083 52.8662 38.0365C52.6337 38.1647 52.3612 38.2282 52.05 38.2282C52.0325 38.2282 52.0162 38.2282 52 38.227L52 39.7034C52.0125 39.7047 52.0263 39.7047 52.04 39.7047C52.55 39.7047 53.0212 39.6031 53.4525 39.4013C53.8837 39.1981 54.255 38.9315 54.5675 38.5977C54.8788 38.2638 55.1225 37.8778 55.2988 37.4398C55.475 37.0019 55.5625 36.5474 55.5625 36.0764C55.5625 35.6244 55.48 35.1801 55.3138 34.7421Z" fill="#750D09"/>
<path d="M60.7466 34.5706C60.7268 34.5437 60.657 34.4933 60.5376 34.419C60.4181 34.345 60.269 34.2674 60.0898 34.1866C59.9106 34.1057 59.7149 34.035 59.5026 33.9744C59.2903 33.9137 59.078 33.8834 58.8658 33.8834C58.2819 33.8834 57.9901 34.0822 57.9901 34.4797C57.9901 34.6009 58.0215 34.702 58.0846 34.7829C58.1475 34.8637 58.2404 34.9362 58.3633 35.0002C58.4859 35.0643 58.6401 35.1232 58.826 35.1771C59.0116 35.2311 59.2273 35.2917 59.4729 35.359C59.8113 35.4534 60.1163 35.556 60.3884 35.6672C60.6604 35.7784 60.891 35.9166 61.08 36.0816C61.269 36.2468 61.4149 36.4472 61.5178 36.683C61.6205 36.9188 61.672 37.2018 61.672 37.532C61.672 37.9362 61.5974 38.2783 61.4481 38.5578C61.2989 38.8375 61.1014 39.0631 60.856 39.235C60.6105 39.4069 60.3286 39.5315 60.0101 39.6089C59.6918 39.6863 59.3633 39.7251 59.025 39.7251C58.7663 39.7251 58.5009 39.705 58.2289 39.6645C57.9568 39.6241 57.6915 39.5652 57.4328 39.4876C57.174 39.4103 56.9235 39.3175 56.6815 39.2097C56.4393 39.1021 56.2154 38.9773 56.0098 38.8358L56.7263 37.3906C56.7526 37.4244 56.839 37.4884 56.985 37.5827C57.1309 37.6771 57.3116 37.7713 57.5273 37.8657C57.7428 37.9601 57.9833 38.0443 58.2488 38.1183C58.514 38.1926 58.7828 38.2295 59.0548 38.2295C59.6319 38.2295 59.9205 38.0511 59.9205 37.6939C59.9205 37.5592 59.8773 37.448 59.7911 37.3604C59.7049 37.2729 59.5854 37.1937 59.4329 37.1229C59.2803 37.052 59.0995 36.9864 58.8906 36.9257C58.6816 36.8651 58.4543 36.7979 58.209 36.7236C57.8839 36.6225 57.6019 36.5131 57.3631 36.3952C57.1243 36.2774 56.9269 36.1409 56.771 35.9859C56.615 35.8309 56.4989 35.6522 56.4228 35.4501C56.3464 35.248 56.3084 35.0123 56.3084 34.7427C56.3084 34.3654 56.378 34.0319 56.5174 33.7422C56.6566 33.4526 56.8458 33.2083 57.0846 33.0095C57.3235 32.8109 57.6004 32.6607 57.9155 32.5598C58.2305 32.4587 58.5639 32.4082 58.9155 32.4082C59.1609 32.4082 59.4031 32.4319 59.642 32.479C59.8809 32.5263 60.1098 32.587 60.3286 32.661C60.5475 32.7352 60.7515 32.8194 60.9406 32.9136C61.1298 33.0081 61.3039 33.1024 61.4631 33.1967L60.7466 34.5706Z" fill="#750D09"/>
</g>
<defs>
<clipPath id="clip0">
<rect width="64" height="65" fill="white" transform="translate(20 10)"/>
</clipPath>
</defs>
</svg>
