<svg width="104" height="85" viewBox="0 0 104 85" fill="none" xmlns="http://www.w3.org/2000/svg">
<path fill-rule="evenodd" clip-rule="evenodd" d="M0.929827 46.0014L28.5075 83.5752L74.6099 82.598L102.907 43.8399L72.8722 0.61638L26.7697 1.59359L0.929827 46.0014ZM82.1396 40.0494C81.7776 22.9694 67.7236 9.41502 50.7491 9.77482C33.7747 10.1346 20.3076 24.2723 20.6697 41.3523C21.0317 58.4323 35.0857 71.9866 52.0602 71.6269C69.0346 71.2671 82.5016 57.1293 82.1396 40.0494Z" fill="#98D8DA"/>
<path d="M73 45.9414C73 48.1275 72.2321 49.9343 72.2321 52.0843L72.2321 58.995C72.2321 60.2672 71.2008 61.2985 69.9286 61.2985L68.3929 61.2985C67.1206 61.2985 66.0893 60.2672 66.0893 58.995L66.0893 56.6914C58.8361 58.7777 43.793 58.6709 36.9107 56.6914L36.9107 58.995C36.9107 60.2672 35.8794 61.2985 34.6071 61.2985L33.0714 61.2985C31.7992 61.2985 30.7679 60.2672 30.7679 58.995L30.7679 52.0843C30.7679 49.8644 30 48.1766 30 45.9414C30 43.6378 33.0714 40.5664 33.8393 39.7985C34.6071 39.0307 38.4464 30.5843 39.2143 29.8164C39.7671 29.2635 43.568 29.1023 45.6029 29.0716L45.6029 29.0793C45.6889 29.0793 47.1386 29.0485 47.4073 29.0485L47.4073 27.5128C47.3198 25.9147 48.536 24.5443 50.1332 24.4414L52.8668 24.4414C54.464 24.5443 55.6802 25.9147 55.5927 27.5128L55.5927 29.0485C55.5927 29.0485 55.7846 29.0485 56.1071 29.0562L56.1071 29.0485C56.1071 29.0485 63.0179 29.0485 63.7857 29.8164C64.5536 30.5843 68.3929 39.0307 69.1607 39.7985C69.9286 40.5664 73 43.6378 73 45.9414Z" fill="#894B9D"/>
<path d="M70.6051 45.9414C70.6051 48.0668 69.9217 49.8629 69.9217 52.0843L69.9217 58.995C69.9762 60.0998 69.205 61.0746 68.1172 61.2755C66.9593 61.1425 66.0864 60.1605 66.0901 58.995L66.0901 56.6914C59.2308 58.664 44.1554 58.7754 36.9115 56.6914L36.9115 58.995C36.9152 60.1605 36.0422 61.1425 34.8843 61.2755C33.7966 61.0746 33.0253 60.0998 33.0799 58.995L33.0799 52.0843C33.0799 49.8321 32.3965 48.126 32.3965 45.9414C32.3965 43.6378 35.1301 40.5664 35.8134 39.7985C36.4968 39.0307 39.9061 30.5843 40.5895 29.8164C41.2238 29.0985 46.4867 29.0631 47.4081 29.0485L47.4081 27.5128C47.3205 25.9147 48.5367 24.5443 50.134 24.4414L52.8676 24.4414C54.4648 24.5443 55.681 25.9147 55.5935 27.5128L55.5935 29.0485C60.6083 29.0485 62.1686 29.5392 62.412 29.8164C63.0954 30.5843 66.5047 39.0307 67.1881 39.7985C67.8715 40.5664 70.6051 43.6378 70.6051 45.9414Z" fill="#955BA5"/>
<path d="M36.9104 56.6917L36.9104 58.9952C36.9104 60.2674 35.8791 61.2988 34.6069 61.2988L33.0711 61.2988C31.7989 61.2988 30.7676 60.2674 30.7676 58.9952L30.7676 54.2422C31.7044 55.1252 33.5088 56.039 36.9104 56.6917Z" fill="#393F4A"/>
<path d="M66.0889 56.6917L66.0889 58.9952C66.0889 60.2674 67.1202 61.2988 68.3924 61.2988L69.9282 61.2988C71.2004 61.2988 72.2317 60.2674 72.2317 58.9952L72.2317 54.2422C71.2949 55.1252 69.4905 56.039 66.0889 56.6917Z" fill="#393F4A"/>
<path d="M62.5495 22.606C62.3255 22.6062 62.1127 22.5086 61.9667 22.3388C59.3449 19.2875 55.5222 17.5321 51.4992 17.5321C47.4763 17.5321 43.6536 19.2875 41.0318 22.3388C40.7499 22.6336 40.2867 22.6565 39.977 22.391C39.6674 22.1254 39.6194 21.6641 39.8677 21.3406C42.7813 17.9492 47.0297 15.998 51.5008 15.998C55.9718 15.998 60.2203 17.9492 63.1338 21.3406C63.3277 21.5685 63.3716 21.8883 63.2461 22.16C63.1206 22.4317 62.8487 22.6058 62.5495 22.606Z" fill="#FB7B76"/>
<path d="M59.8233 25.3317C59.5922 25.3317 59.3733 25.2277 59.2275 25.0483C57.337 22.721 54.4982 21.3697 51.4998 21.3697C48.5013 21.3697 45.6626 22.721 43.7721 25.0483C43.599 25.2612 43.3254 25.3656 43.0545 25.3221C42.7836 25.2786 42.5565 25.0939 42.4587 24.8376C42.3609 24.5812 42.4072 24.2922 42.5803 24.0793C44.7627 21.3935 48.0391 19.834 51.4998 19.834C54.9605 19.834 58.2369 21.3935 60.4192 24.0793C60.6062 24.3092 60.6442 24.6261 60.5169 24.8937C60.3896 25.1613 60.1197 25.3318 59.8233 25.3317Z" fill="#E64C3C"/>
<path d="M51.4996 30.5831C52.3477 30.5831 53.0353 29.8956 53.0353 29.0474C53.0353 28.1993 52.3477 27.5117 51.4996 27.5117C50.6514 27.5117 49.9639 28.1993 49.9639 29.0474C49.9639 29.8956 50.6514 30.5831 51.4996 30.5831Z" fill="#B49ACA"/>
<path d="M40.3864 45.168C38.294 45.1312 36.2083 44.9211 34.1506 44.5399C33.775 44.4562 33.3958 44.6652 33.266 45.0275C32.7969 46.4157 32.545 49.6546 40.3403 49.7767C40.6365 49.783 40.9099 49.6183 41.0429 49.3536C41.6612 48.1769 41.6669 46.7727 41.0582 45.5911C40.927 45.3391 40.6703 45.1774 40.3864 45.168Z" fill="#F5EFCA"/>
<path d="M62.6136 45.168C64.706 45.1312 66.7917 44.9211 68.8494 44.5399C69.225 44.4562 69.6042 44.6652 69.734 45.0275C70.2031 46.4157 70.455 49.6546 62.6597 49.7767C62.3635 49.783 62.0901 49.6183 61.9571 49.3536C61.3388 48.1769 61.333 46.7727 61.9418 45.5911C62.073 45.3391 62.3297 45.1774 62.6136 45.168Z" fill="#F5EFCA"/>
<path d="M51.5001 50.5491C56.165 50.5491 59.9466 46.7675 59.9466 42.1027C59.9466 37.4378 56.165 33.6563 51.5001 33.6563C46.8353 33.6563 43.0537 37.4378 43.0537 42.1027C43.0537 46.7675 46.8353 50.5491 51.5001 50.5491Z" fill="#3D324C"/>
<path d="M52.3481 45.5171L49.8326 40.4899L48.2746 42.5631C48.1296 42.7565 47.902 42.8703 47.6603 42.8703L45.3567 42.8703C44.9326 42.8703 44.5889 42.5265 44.5889 42.1024C44.5889 41.6784 44.9326 41.3346 45.3567 41.3346L47.2764 41.3346L49.3496 38.5703C49.509 38.3554 49.7687 38.2389 50.0352 38.2629C50.3017 38.2868 50.5365 38.4478 50.6549 38.6878L53.1666 43.7149L54.7246 41.6417C54.8696 41.4484 55.0972 41.3346 55.3389 41.3346L57.6424 41.3346C58.0665 41.3346 58.4103 41.6784 58.4103 42.1024C58.4103 42.5265 58.0665 42.8703 57.6424 42.8703L55.7228 42.8703L53.6496 45.6346C53.4899 45.8477 53.2312 45.9628 52.9661 45.9389C52.7009 45.915 52.467 45.7553 52.3481 45.5171Z" fill="#B49ACA"/>
</svg>
