<svg width="187" height="38" viewBox="0 0 187 38" fill="none" xmlns="http://www.w3.org/2000/svg">
<path d="M1.96969 7.45961C1.96969 11.5921 1.84053 13.9245 1.64679 13.9245C1.45305 13.9245 1.32389 12.2006 1.32389 9.2343C1.32389 4.72153 1.2916 4.54406 0.678091 4.54406C0.03229 4.54406 0.03229 4.72153 0.03229 14.5584V24.5726H4.22999C6.8132 24.5726 8.4277 24.6741 8.4277 24.8262C8.4277 24.9783 6.8132 25.0797 4.22999 25.0797H0.03229V25.7135V26.322L4.94037 26.398C8.49228 26.4487 9.84846 26.5502 9.97762 26.7783C10.0745 27.0319 8.94434 27.1079 5.03724 27.1079H0L0.0968701 27.6657C0.19374 28.2488 0.25832 28.2488 5.68304 28.3248C8.68602 28.3502 11.3015 28.5023 11.463 28.6291C11.689 28.8065 9.84846 28.8826 6.23198 28.8826H0.678091V29.5164V30.1502H6.61946C10.2682 30.1502 12.6577 30.2516 12.7868 30.4038C12.916 30.5812 10.914 30.6573 7.00694 30.6573C3.71335 30.6573 1.00099 30.708 1.00099 30.784C1.00099 30.8601 1.22702 31.215 1.51763 31.5446L2.03427 32.1784H8.13709C11.8181 32.1784 14.2722 32.2799 14.4014 32.432C14.5305 32.6094 12.464 32.6855 8.45999 32.6855C5.06953 32.6855 2.29259 32.7616 2.29259 32.8376C2.29259 32.9137 2.45404 33.1925 2.61549 33.4714C2.93839 33.9278 3.35816 33.9531 9.3964 33.9531H15.8544V30.2009V26.4487L14.4982 25.967C13.3681 25.5614 13.0129 25.2572 12.6254 24.3698L12.1733 23.305H8.52457H4.87579V14.1781V5.05111H6.1674H7.459V3.0229V0.994687H4.71434H1.96969V7.45961Z" fill="#FFD700"/>
<path d="M24.5735 3.0229V5.05111H25.8651H27.1567V14.1781V23.305H23.4757H19.7946L19.5686 24.0402C19.3426 24.9276 18.1478 25.9924 17.276 26.1445C16.6948 26.2206 16.6625 26.5248 16.5656 30.0995L16.4688 33.9531H22.6684C28.19 33.9531 28.9004 33.9024 29.2879 33.4968C29.5139 33.2686 29.7399 32.9897 29.7399 32.863C29.7399 32.7616 27.0599 32.6855 23.7663 32.6855C19.9884 32.6855 17.7926 32.5841 17.7926 32.432C17.7926 32.2799 20.0529 32.1784 23.8955 32.1784C29.8691 32.1784 30.0306 32.1531 30.5149 31.6207C30.8055 31.3165 31.0315 30.9615 31.0315 30.8601C31.0315 30.7333 28.3192 30.6573 25.0256 30.6573C21.1185 30.6573 19.1165 30.5812 19.2457 30.4038C19.3749 30.2516 21.7643 30.1502 25.4131 30.1502C28.8035 30.1502 31.3545 30.0488 31.3545 29.9221C31.3545 29.7953 31.4513 29.5164 31.5482 29.2882C31.7096 28.9333 31.1284 28.8826 26.2203 28.8826C22.7653 28.8826 20.6987 28.7812 20.6987 28.6291C20.6987 28.477 22.733 28.3755 26.188 28.3755C29.3202 28.3755 31.6774 28.2741 31.6774 28.1474C31.6774 28.0206 31.7742 27.7417 31.8711 27.5136C32.0325 27.1586 31.4836 27.1079 26.8338 27.1079C22.2164 27.1079 21.6352 27.0572 21.9903 26.7276C22.3132 26.4234 23.3142 26.3473 27.189 26.3473H32.0002V25.7135V25.0797H27.6088C24.7996 25.0797 23.3142 24.9783 23.4434 24.8262C23.5726 24.6741 25.3808 24.5726 27.8348 24.5726H32.0002V14.5584C32.0002 4.72153 32.0003 4.54406 31.3545 4.54406C30.7409 4.54406 30.7086 4.72153 30.7086 9.2343C30.7086 13.24 30.6441 13.9245 30.2243 13.9245C29.8045 13.9245 29.7399 13.0372 29.7399 7.45961V0.994687H27.1567H24.5735V3.0229Z" fill="#FFD700"/>
<path d="M14.4666 22.241C13.2073 23.3058 14.2406 25.334 16.0165 25.334C17.8248 25.334 18.8581 23.1537 17.5342 22.2156C16.7269 21.6579 15.1124 21.6832 14.4666 22.241Z" fill="#FFD700"/>
<path d="M4.22949 34.789C4.22949 35.6003 5.00445 35.727 9.62193 35.727C12.4957 35.727 14.2394 35.8284 14.2394 35.9806C14.2394 36.1327 12.7863 36.2341 10.5583 36.2341C8.52407 36.2341 6.7804 36.3355 6.68353 36.4623C6.26376 36.9947 8.71781 37.5017 11.6239 37.5017C13.3676 37.5017 14.8206 37.6285 15.2081 37.8059C15.6925 38.0595 16.0476 38.0595 16.9195 37.8059C17.5007 37.6285 19.1152 37.5017 20.5037 37.5017C22.9577 37.5017 25.218 36.9947 25.218 36.4623C25.218 36.3355 23.5389 36.2341 21.5047 36.2341C19.2444 36.2341 17.7913 36.1327 17.7913 35.9806C17.7913 35.8284 19.5027 35.727 22.2796 35.727C25.9607 35.727 26.8971 35.651 27.2846 35.3214C27.5752 35.1186 27.8012 34.8143 27.8012 34.6876C27.8012 34.5608 23.0546 34.4594 16.0154 34.4594C6.55437 34.4594 4.22949 34.5355 4.22949 34.789Z" fill="#FFD700"/>
<path d="M57.0238 8.84105V29.001H52.9198L52.3078 27.273C50.0278 28.737 47.7718 29.469 45.5398 29.469C42.9958 29.469 41.2437 28.809 40.2837 27.489C39.3237 26.145 38.8438 24.213 38.8438 21.693V8.84105H44.3518V21.009C44.3518 22.665 44.5558 23.817 44.9638 24.465C45.3958 25.113 46.1758 25.437 47.3038 25.437C48.6478 25.437 50.0518 24.921 51.5158 23.889V8.84105H57.0238Z" fill="#737373"/>
<path d="M78.4435 25.077V29.001H61.0555V26.013L71.7835 12.801H61.5595V8.84105H78.0835V11.901L67.3915 25.077H78.4435Z" fill="#737373"/>
<path d="M100.688 8.84105V29.001H96.5838L95.9718 27.273C93.6918 28.737 91.4358 29.469 89.2038 29.469C86.6598 29.469 84.9078 28.809 83.9478 27.489C82.9878 26.145 82.5078 24.213 82.5078 21.693V8.84105H88.0158V21.009C88.0158 22.665 88.2198 23.817 88.6278 24.465C89.0598 25.113 89.8398 25.437 90.9678 25.437C92.3118 25.437 93.7158 24.921 95.1798 23.889V8.84105H100.688Z" fill="#737373"/>
<path d="M115.556 29.469C113.252 29.469 111.32 29.013 109.76 28.101C108.224 27.165 107.072 25.917 106.304 24.357C105.56 22.773 105.188 20.973 105.188 18.957C105.188 17.013 105.572 15.249 106.34 13.665C107.108 12.057 108.308 10.773 109.94 9.81305C111.572 8.85305 113.624 8.37305 116.096 8.37305C117.104 8.37305 118.148 8.50505 119.228 8.76905C120.308 9.03305 121.172 9.38105 121.82 9.81305L120.632 13.629C119.192 12.789 117.68 12.369 116.096 12.369C114.392 12.369 113.072 12.945 112.136 14.097C111.224 15.225 110.768 16.833 110.768 18.921C110.768 21.009 111.188 22.629 112.028 23.781C112.868 24.933 114.044 25.509 115.556 25.509C116.564 25.509 117.476 25.341 118.292 25.005C119.132 24.645 120.032 24.141 120.992 23.493L122.576 26.985C121.712 27.705 120.668 28.305 119.444 28.785C118.244 29.241 116.948 29.469 115.556 29.469Z" fill="#737373"/>
<path d="M135.173 29.469C132.917 29.469 131.009 29.013 129.449 28.101C127.889 27.189 126.725 25.941 125.957 24.357C125.189 22.773 124.805 20.973 124.805 18.957C124.805 16.893 125.189 15.069 125.957 13.485C126.725 11.877 127.889 10.629 129.449 9.74105C131.009 8.82905 132.917 8.37305 135.173 8.37305C137.429 8.37305 139.337 8.85305 140.897 9.81305C142.457 10.773 143.621 12.057 144.389 13.665C145.181 15.249 145.577 16.989 145.577 18.885C145.577 20.781 145.181 22.533 144.389 24.141C143.621 25.749 142.457 27.045 140.897 28.029C139.337 28.989 137.429 29.469 135.173 29.469ZM135.209 25.509C138.401 25.509 139.997 23.313 139.997 18.921C139.997 14.553 138.401 12.369 135.209 12.369C131.993 12.369 130.385 14.553 130.385 18.921C130.385 23.313 131.993 25.509 135.209 25.509Z" fill="#737373"/>
<path d="M162.358 13.665C161.134 13.665 160.006 13.761 158.974 13.953C157.966 14.145 156.838 14.529 155.59 15.105V29.001H150.082V8.84105H154.186L155.05 11.289C156.298 10.233 157.498 9.48905 158.65 9.05705C159.826 8.62505 161.062 8.40905 162.358 8.40905V13.665Z" fill="#737373"/>
<path d="M176.87 8.37305C178.67 8.37305 180.266 8.79305 181.658 9.63305C183.05 10.449 184.13 11.661 184.898 13.269C185.69 14.853 186.086 16.749 186.086 18.957C186.086 22.557 185.054 25.209 182.99 26.913C180.95 28.617 178.238 29.469 174.854 29.469C173.702 29.469 172.73 29.361 171.938 29.145V37.389H166.43V8.84105H170.534L171.074 10.353C172.802 9.03305 174.734 8.37305 176.87 8.37305ZM174.494 25.509C178.526 25.509 180.542 23.277 180.542 18.813C180.542 16.485 180.134 14.829 179.318 13.845C178.526 12.861 177.506 12.369 176.258 12.369C175.394 12.369 174.626 12.477 173.954 12.693C173.282 12.885 172.61 13.209 171.938 13.665V25.185C172.85 25.401 173.702 25.509 174.494 25.509Z" fill="#737373"/>
</svg>
